<svg width="664" height="458" viewBox="0 0 664 458" fill="none" xmlns="http://www.w3.org/2000/svg">
<path fill-rule="evenodd" clip-rule="evenodd" d="M48.2847 350.151C62.9163 293.592 210.97 325.813 308.034 308.328C405.096 290.843 519.929 209.411 595.929 249.3C671.924 289.189 591.064 385.614 416.757 407.374C242.448 429.133 33.6531 406.709 48.2847 350.151Z" fill="#E4E4E4"/>
<g opacity="0.5">
<path opacity="0.5" fill-rule="evenodd" clip-rule="evenodd" d="M174.044 106.214C173.135 107.123 173.488 110.35 173.469 111.545C173.439 113.405 173.555 115.247 173.711 117.1C173.815 118.341 174.402 130.18 176.036 129.27C176.958 128.758 176.381 125.334 176.379 124.25C176.375 121.842 176.275 119.44 176.114 117.037C175.965 114.806 175.871 112.601 175.957 110.366C175.978 109.821 176.489 103.766 174.044 106.214Z" fill="#555555"/>
<path opacity="0.5" fill-rule="evenodd" clip-rule="evenodd" d="M213.665 104.755C205.849 104.817 198.036 105.203 190.224 105.439C186.464 105.553 182.708 105.697 178.953 105.906C177.673 105.977 174.928 105.567 173.862 106.248C171.495 107.762 175.312 108.116 176.33 108.079C191.791 107.518 207.256 106.78 222.73 106.745C230.321 106.728 237.908 106.944 245.5 106.896C248.401 106.878 251.614 105.627 252.347 109.005C253.174 112.815 252.224 117.058 251.965 120.887C251.793 123.443 251.854 125.947 251.969 128.501C252.044 130.137 251.851 131.98 252.141 133.586C252.419 135.133 253.531 136.06 254.55 134.328C255.159 133.292 254.856 130.737 254.896 129.538C254.951 127.924 254.9 126.309 254.9 124.694C254.899 120.752 255.455 116.826 255.382 112.884C255.335 110.343 255.2 105.736 251.994 105.125C248.463 104.452 244.124 105.128 240.51 105.087C231.558 104.985 222.62 104.685 213.665 104.755Z" fill="#555555"/>
<path opacity="0.5" fill-rule="evenodd" clip-rule="evenodd" d="M192.129 129.412C189.181 129.412 186.233 129.43 183.287 129.478C180.759 129.52 176.785 128.994 174.432 129.897C172.822 130.516 172.395 132.314 174.432 132.793C176.656 133.315 180.006 132.461 182.332 132.42C193.994 132.215 205.769 131.946 217.416 132.684C228.329 133.374 239.452 134.044 250.381 133.315C251.301 133.254 255.99 133.067 253.85 131.31C252.602 130.284 247.542 130.958 245.919 130.909C240.197 130.737 234.468 130.698 228.747 130.481C223.101 130.267 217.48 129.633 211.831 129.475C205.269 129.293 198.693 129.412 192.129 129.412Z" fill="#555555"/>
<path opacity="0.5" fill-rule="evenodd" clip-rule="evenodd" d="M189.179 112.652C193.773 112.852 198.318 119.513 193.67 122.732C189.309 125.753 181.138 122.442 183.562 116.585C183.214 117.432 184.003 115.665 184.013 115.654C184.474 115.111 185.302 114.509 185.87 114.081C186.52 113.591 187.198 113.052 187.982 112.806C188.497 112.645 188.416 113.251 189.179 112.652ZM186.942 110.25C184.792 111.089 183.811 112.035 182.333 113.749C181.311 114.934 180.008 115.558 180.019 117.16C180.022 117.514 180.477 117.904 180.557 118.246C180.665 118.718 180.539 119.323 180.625 119.824C181.515 125 187.69 126.744 192.211 125.767C196.149 124.916 199.094 121.137 198.182 117.027C197.264 112.89 191.128 108.612 186.942 110.25Z" fill="#555555"/>
<path opacity="0.5" fill-rule="evenodd" clip-rule="evenodd" d="M185.027 117.474C185.027 119.336 187.969 119.336 187.969 117.474C187.969 115.633 185.027 115.554 185.027 117.474Z" fill="#555555"/>
<path opacity="0.5" fill-rule="evenodd" clip-rule="evenodd" d="M188.707 117.097C188.707 118.576 191.044 118.576 191.044 117.097C191.044 115.634 188.707 115.572 188.707 117.097Z" fill="#555555"/>
<path opacity="0.5" fill-rule="evenodd" clip-rule="evenodd" d="M189.431 120.148C188.682 120.435 187.733 119.839 187.118 120.232C186.03 120.929 187.121 121.559 187.704 121.838C190.33 123.098 190.798 119.625 189.431 120.148Z" fill="#555555"/>
<path opacity="0.5" fill-rule="evenodd" clip-rule="evenodd" d="M229.537 116.022C229.458 116.055 229.18 116.173 229.537 116.022V116.022ZM218.1 114.351C216.135 114.794 214.475 116.63 212.34 116.384C210.704 116.196 209.596 114.617 207.98 114.388C205.913 114.094 200.289 118.807 203.246 119.616C204.971 120.088 205.929 116.936 207.453 116.768C208.659 116.635 210.298 118.114 211.548 118.325C213.879 118.717 215.48 117.434 217.525 116.605C219.749 115.706 221.014 116.516 222.948 117.516C224.474 118.305 225.912 118.819 227.658 118.494C229.297 118.188 231.357 116.502 233.007 116.675C234.623 116.845 235.776 118.531 237.438 118.688C238.124 118.752 239.144 118.986 239.029 117.928C238.936 117.082 237.992 117.225 237.401 116.917C235.881 116.126 234.459 114.724 232.625 114.844C231.245 114.934 229.989 115.903 228.717 116.367C224.553 117.886 222.212 113.429 218.1 114.351Z" fill="#555555"/>
<path opacity="0.5" fill-rule="evenodd" clip-rule="evenodd" d="M221.579 141.165C213.547 141.239 205.486 141.358 197.476 142.002C195.576 142.155 176.184 143.986 176.221 144.117C176.289 144.361 178.783 144.734 178.768 144.791C178.6 144.375 178.216 144.202 177.615 144.274C196.007 144.274 214.34 142.628 232.756 142.924C237.383 142.998 242.028 142.967 246.652 143.113C247.806 143.149 250.666 143.976 251.573 143.455C253.952 142.088 249.63 141.93 248.914 141.873C239.851 141.147 230.668 141.075 221.579 141.165Z" fill="#444444"/>
<path opacity="0.5" fill-rule="evenodd" clip-rule="evenodd" d="M173.841 145.067C172.639 146.271 173.745 150.602 173.793 152.23C173.861 154.583 173.805 156.953 174.011 159.3C174.247 161.981 174.613 164.838 175.316 167.439C175.704 168.872 177.064 171.149 177.603 168.546C177.988 166.686 177.404 164.218 177.2 162.324C176.928 159.789 176.862 157.288 176.852 154.741C176.843 152.522 176.8 150.294 176.618 148.081C176.524 146.933 175.946 142.974 173.841 145.067Z" fill="#444444"/>
<path opacity="0.5" fill-rule="evenodd" clip-rule="evenodd" d="M204.055 167.123C198.354 167.22 192.642 167.355 186.951 167.711C184.618 167.857 182.287 168.075 179.963 168.321C179.489 168.371 174.24 168.584 176.586 170.521C177.644 171.396 181.999 170.186 183.437 170.06C185.856 169.848 188.275 169.71 190.7 169.608C196.322 169.369 201.96 169.159 207.587 169.256C217.863 169.435 228.073 169.514 238.352 169.285C239.812 169.252 251.253 169.558 251.642 168.039C251.955 166.815 247.863 167.377 247.117 167.399C244.381 167.48 241.644 167.462 238.906 167.447C227.308 167.388 215.644 166.927 204.055 167.123Z" fill="#444444"/>
<path opacity="0.5" fill-rule="evenodd" clip-rule="evenodd" d="M249.705 143.037C249.886 148.111 250.75 153.18 251.027 158.27C251.153 160.596 251.301 162.921 251.415 165.248C251.452 166 251.15 167.809 252.038 168.241C253.256 168.833 253.42 167.639 253.648 166.832C254.307 164.5 253.861 161.471 253.801 159.075C253.743 156.755 253.739 154.431 253.568 152.116C253.393 149.751 252.917 147.429 252.695 145.072C252.602 144.075 252.929 142.416 251.871 141.797C250.956 141.262 249.665 141.937 249.705 143.037Z" fill="#444444"/>
<path opacity="0.5" fill-rule="evenodd" clip-rule="evenodd" d="M193.673 151.478C193.695 151.494 193.716 151.511 193.738 151.528C193.716 151.511 193.695 151.494 193.673 151.478ZM188.829 149.974C190.635 150.49 192.119 150.298 193.845 151.612C195.275 152.703 196.742 154.298 197.217 156.06C198.313 160.133 194.597 162.365 191.113 162.409C187.544 162.453 182.262 161.626 182.444 157.053C182.585 153.539 185.151 150.111 188.829 149.974ZM188.956 147.672C184.272 147.906 180.493 153.166 180.533 157.592C180.583 162.958 186.663 164.341 190.983 164.378C195.859 164.42 200.72 161.054 199.414 155.572C198.367 151.181 193.461 147.439 188.956 147.672Z" fill="#444444"/>
<path opacity="0.5" fill-rule="evenodd" clip-rule="evenodd" d="M184.244 154.877C184.244 156.373 186.608 156.373 186.608 154.877C186.608 153.398 184.244 153.335 184.244 154.877Z" fill="#444444"/>
<path opacity="0.5" fill-rule="evenodd" clip-rule="evenodd" d="M189.204 154.22C189.204 155.729 191.587 155.729 191.587 154.22C191.587 152.73 189.204 152.665 189.204 154.22Z" fill="#444444"/>
<path opacity="0.5" fill-rule="evenodd" clip-rule="evenodd" d="M186.469 157.634C184.93 159.169 190.337 161.862 191.612 159.726C192.659 157.97 190.379 158.552 189.571 158.458C188.692 158.354 187.186 156.918 186.469 157.634Z" fill="#444444"/>
<path opacity="0.5" fill-rule="evenodd" clip-rule="evenodd" d="M229.695 154.251C229.547 154.314 229.547 154.314 229.695 154.251V154.251ZM209.393 151.751C207.834 152.043 202.72 153.768 202.651 155.616C202.525 158.976 207.534 155.534 208.621 155.093C211.575 153.892 213.128 156.341 216.096 156.47C218.673 156.582 221.044 154.377 223.472 154.637C226.016 154.911 227.24 157.617 230.177 156.18C231.731 155.42 231.691 154.248 229.947 154.138C228.893 154.071 228.168 154.507 227.07 154.053C225.351 153.344 224.658 152.19 222.601 152.374C221.049 152.512 219.646 153.387 218.131 153.726C214.662 154.5 212.737 151.124 209.393 151.751Z" fill="#444444"/>
<path opacity="0.5" fill-rule="evenodd" clip-rule="evenodd" d="M241.665 155.71C241.557 155.755 241.557 155.755 241.665 155.71V155.71ZM242.058 154.311C242.075 154.319 242.192 154.482 242.058 154.311V154.311ZM240.271 153.243C240.204 153.295 240.204 153.295 240.271 153.243V153.243ZM240.31 153.23C240.657 153.438 243.442 155.341 241.419 155.79C240.392 156.017 239.542 153.952 240.31 153.23ZM239.388 151.121C234.927 153.155 239.728 160.433 243.229 157.476C244.702 156.231 244.896 153.716 243.462 152.42C242.604 151.643 240.554 150.588 239.388 151.121Z" fill="#444444"/>
<path opacity="0.5" fill-rule="evenodd" clip-rule="evenodd" d="M197.509 179.8C191.942 179.802 186.327 179.685 180.767 180.015C179.832 180.07 176.268 179.892 175.785 180.87C174.904 182.659 178.571 181.771 179.104 181.717C190.173 180.609 201.736 181.247 212.841 181.563C221.925 181.821 230.959 181.981 240.031 182.449C242.416 182.572 244.798 182.708 247.181 182.852C247.958 182.899 249.912 183.413 250.076 182.173C250.227 181.025 247.789 181.285 247.18 181.252C242.336 180.997 237.496 180.73 232.653 180.458C220.997 179.801 209.184 179.798 197.509 179.8Z" fill="#555555"/>
<path opacity="0.5" fill-rule="evenodd" clip-rule="evenodd" d="M175.607 181.789C174.567 182.822 175.054 186.769 175.025 188.073C174.974 190.354 174.867 192.634 174.819 194.914C174.769 197.297 174.838 199.692 174.979 202.072C175.038 203.072 175.859 207.901 177.15 205.138C177.728 203.903 177.136 200.462 177.145 199.062C177.161 196.516 177.298 193.979 177.425 191.435C177.534 189.249 177.538 187.06 177.634 184.873C177.664 184.176 177.747 179.644 175.607 181.789Z" fill="#555555"/>
<path opacity="0.5" fill-rule="evenodd" clip-rule="evenodd" d="M251.013 202.165C245.595 202.72 240.09 202.458 234.652 202.868C229.966 203.221 225.283 203.366 220.584 203.465C209.944 203.69 199.285 203.909 188.675 204.795C186.258 204.997 183.842 205.212 181.418 205.32C180.206 205.374 175.118 204.823 174.739 206.1C174.093 208.277 179.534 207.415 180.708 207.381C183.289 207.307 185.858 207.12 188.431 206.924C199.249 206.1 210.108 205.854 220.949 205.511C226.845 205.325 232.7 204.894 238.583 204.502C241.516 204.306 244.456 204.3 247.387 204.11C248.155 204.06 250.871 204.158 251.422 203.541C251.801 203.117 251.897 202.083 251.013 202.165Z" fill="#555555"/>
<path opacity="0.5" fill-rule="evenodd" clip-rule="evenodd" d="M249.176 182.159C249.362 187.354 249.656 192.544 249.831 197.738C249.884 199.3 249.412 202.099 250.282 203.477C251.681 205.692 252.773 203.348 253.029 201.968C253.837 197.611 252.968 192.799 252.742 188.416C252.656 186.744 253.175 183.022 252.367 181.526C251.598 180.1 249.107 180.243 249.176 182.159Z" fill="#555555"/>
<path opacity="0.5" fill-rule="evenodd" clip-rule="evenodd" d="M240.081 189.557C242.156 190.119 242.459 194.631 240.118 194.965C236.632 195.461 238.156 190.488 240.081 189.557ZM239.499 187.763C238.866 187.744 237.405 187.569 237.014 188.084C236.688 188.516 237.018 189.425 236.98 189.836C236.843 191.304 235.649 192.151 236.183 193.884C236.545 195.06 237.515 196.166 238.697 196.574C244.935 198.73 244.859 186.679 239.499 187.763Z" fill="#555555"/>
<path opacity="0.5" fill-rule="evenodd" clip-rule="evenodd" d="M183.18 188.573C183.164 188.592 183.148 188.612 183.133 188.632C183.148 188.612 183.164 188.592 183.18 188.573ZM188.079 185.966C188.054 185.758 188.03 185.549 188.006 185.34C191.388 186.936 194.079 189.906 192.956 193.891C192.099 196.932 189.003 198.01 186.119 197.26C182.926 196.428 181.4 193.797 182.261 190.566C182.658 189.075 183.878 187.072 185.454 186.593C186.188 186.369 187.811 186.938 188.079 185.966ZM186.101 184.704C185.246 184.762 184.413 185.118 183.715 185.606C184.368 185.053 185.239 184.724 186.101 184.704ZM186.125 182.74C184.012 182.805 182.627 184.084 181.374 185.62C180.98 186.102 179.65 187.381 179.815 188.031C179.945 188.544 180.286 189.296 181.004 188.722C177.245 196.211 186.954 202.599 192.881 197.391C198.412 192.531 192.924 182.512 186.125 182.74Z" fill="#555555"/>
<path opacity="0.5" fill-rule="evenodd" clip-rule="evenodd" d="M184.206 189.696C184.206 190.694 185.754 190.694 185.754 189.696C185.754 188.699 184.206 188.699 184.206 189.696Z" fill="#555555"/>
<path opacity="0.5" fill-rule="evenodd" clip-rule="evenodd" d="M186.848 189.867C186.848 190.881 188.421 190.881 188.421 189.867C188.421 188.853 186.848 188.853 186.848 189.867Z" fill="#555555"/>
<path opacity="0.5" fill-rule="evenodd" clip-rule="evenodd" d="M188.047 193.426C187.311 193.486 184.616 193.236 184.144 193.88C183.353 194.958 184.615 194.995 185.234 195.112C185.792 195.216 188.218 195.157 188.56 194.662C188.862 194.224 188.791 193.363 188.047 193.426Z" fill="#555555"/>
<path opacity="0.5" fill-rule="evenodd" clip-rule="evenodd" d="M220.509 190.633C220.382 190.685 220.382 190.685 220.509 190.633V190.633ZM210.328 189.888C208.67 190.01 207.265 190.964 205.679 191.345C203.987 191.751 203.254 191.004 201.715 190.515C200.114 190.006 198.975 190.207 197.688 191.3C196.959 191.919 195.359 193.345 195.815 194.446C196.859 196.964 199.221 192.867 200.332 192.676C202.065 192.379 203.607 193.894 205.606 193.46C207.417 193.068 209.023 191.825 210.915 191.811C212.497 191.8 213.987 192.665 215.549 192.875C217.933 193.194 219.498 192.348 221.702 191.72C223.613 191.175 224.953 191.893 226.75 192.498C227.572 192.774 230.313 193.778 229.808 191.958C229.665 191.443 226.053 190.524 225.493 190.347C223.519 189.723 222.268 189.966 220.387 190.683C218.818 191.281 217.498 191.573 215.816 191.244C213.963 190.881 212.278 189.74 210.328 189.888Z" fill="#555555"/>
</g>
<g opacity="0.5">
<path opacity="0.5" fill-rule="evenodd" clip-rule="evenodd" d="M286.639 106.411C286.907 100.653 287.275 94.9038 287.469 89.1424C287.565 86.288 287.64 83.4324 287.713 80.5774C287.729 79.9413 287.746 79.3058 287.76 78.6703C287.807 76.5104 287.551 76.3334 289.725 76.1414C299.424 75.2856 309.162 75.0022 318.873 74.2273C330.585 73.2934 342.357 72.6486 354.102 72.3595C359.321 72.2311 364.563 71.9645 369.783 72.1264C370.939 72.1623 373.209 71.8616 373.665 72.7602C373.861 73.1488 373.448 74.4852 373.396 74.9328C373.233 76.3328 373.08 77.7375 372.986 79.1444C372.431 87.4411 372.761 95.947 374.368 104.118C370.599 101.993 365.836 100.165 361.443 100.528C356.964 100.898 353.613 103.485 350.027 105.866C348 107.214 347.316 107.568 345.293 106.263C343.549 105.138 341.9 103.853 340.255 102.59C337.716 100.643 335.321 98.5314 332.859 96.4895C328.333 92.7352 322.097 87.3913 315.845 88.9649C311.379 90.089 307.255 92.5433 303.379 94.9449C297.619 98.5135 292.406 102.884 286.639 106.411ZM364.262 69.5698C342.01 69.5698 319.924 71.7262 297.733 72.8932C295.416 73.0147 293.106 73.1945 290.797 73.4171C289.258 73.5658 285.495 72.9418 284.486 74.2568C283.813 75.1341 284.391 75.2653 284.486 76.0992C284.605 77.1494 284.534 78.3938 284.504 79.5059C284.43 82.1845 284.352 84.8631 284.291 87.5423C284.061 97.668 283.917 107.792 284.327 117.915C284.417 120.123 285.222 123.18 284.781 125.325C284.463 126.878 283.397 127.823 285.854 128.11C288.272 128.393 291.228 127.674 293.648 127.444C296.082 127.212 298.515 126.961 300.952 126.76C311.547 125.888 322.244 126.019 332.867 125.729C343.585 125.437 354.307 125.418 365.029 125.412C369.515 125.409 374.641 125.662 379.018 124.427C380.558 123.993 380.807 123.779 380.427 122.251C380.356 121.961 379.891 121.854 379.754 121.33C379.569 120.617 379.664 119.75 379.621 119.008C379.479 116.584 379.429 114.155 379.315 111.73C379.124 107.677 378.426 103.743 377.909 99.7313C377.312 95.0981 377.343 90.3932 377.331 85.7294C377.324 83.1427 377.39 80.5641 377.598 77.9844C377.732 76.3299 378.546 73.8595 378.133 72.3167C377.927 71.5481 377.59 70.9392 376.79 70.6084C376.284 70.3985 375.858 70.5627 375.357 70.5095C374.763 70.4465 374.392 70.3632 373.68 70.2025C370.631 69.5114 367.37 69.5698 364.262 69.5698Z" fill="#444444"/>
<path opacity="0.5" fill-rule="evenodd" clip-rule="evenodd" d="M351.947 80.585C351.945 82.1978 351.694 84.5769 352.438 86.0955C353.38 88.0211 354.56 87.4191 354.873 85.6091C355.052 84.5723 355.047 81.5039 354.714 80.585C354.243 79.285 351.947 78.3997 351.947 80.585Z" fill="#555555"/>
<path opacity="0.5" fill-rule="evenodd" clip-rule="evenodd" d="M354.654 81.2077C353.139 81.2609 348.73 80.8977 347.705 82.115C345.948 84.2026 349.007 84.5722 350.321 84.4553C351.841 84.32 356.537 84.6502 357.555 83.4318C359.258 81.3927 355.844 81.1643 354.654 81.2077Z" fill="#555555"/>
<path opacity="0.5" fill-rule="evenodd" clip-rule="evenodd" d="M295.898 135.075C302.554 136.231 300.484 146.377 294.185 144.027C291.991 143.208 288.757 140.842 289.97 138.054C290.876 135.971 293.829 134.876 295.898 135.075ZM293.142 131.92C288.813 132.648 285.854 137.332 287.338 141.417C288.77 145.359 294.201 148.245 298.206 146.829C302.029 145.476 303.937 140.39 302.648 136.67C301.301 132.782 296.913 131.285 293.142 131.92Z" fill="#555555"/>
<path opacity="0.5" fill-rule="evenodd" clip-rule="evenodd" d="M333.629 136.262C331.972 136.4 330.54 137.56 328.872 137.765C327.313 137.957 326.021 137.423 324.561 136.997C322.796 136.482 321.178 136.256 319.374 136.713C317.996 137.063 316.637 138 315.206 138.114C312.389 138.336 309.115 135.123 306.916 138.757C305.862 140.499 307.393 141.621 308.969 140.809C310.613 139.962 309.806 139.659 311.846 140.159C313.547 140.576 314.922 140.803 316.626 140.218C318.17 139.689 319.525 138.72 321.203 138.611C322.846 138.505 324.275 139.253 325.846 139.576C327.777 139.973 329.486 139.672 331.316 139.067C333.056 138.491 333.751 138.177 335.507 138.69C336.619 139.015 339.049 140.049 340.131 139.216C342.003 137.776 339.497 137.566 338.51 137.361C336.922 137.032 335.278 136.127 333.629 136.262Z" fill="#555555"/>
<path opacity="0.5" fill-rule="evenodd" clip-rule="evenodd" d="M371.553 135.295C371.566 135.305 371.58 135.315 371.592 135.325C371.58 135.315 371.566 135.305 371.553 135.295ZM369.926 134.955C372.346 135.11 374.962 139.517 371.756 139.673C369.5 139.783 366.975 135.925 369.926 134.955ZM369.587 131.349C361.937 133.485 365.434 144.268 372.813 143.023C376.165 142.457 377.301 138.575 376.192 135.701C375.716 134.467 374.789 133.426 373.68 132.715C372.862 132.191 370.522 131.089 369.587 131.349Z" fill="#555555"/>
<path opacity="0.5" fill-rule="evenodd" clip-rule="evenodd" d="M333.895 153.861C340.627 153.63 347.359 153.399 354.098 153.336C357.75 153.303 361.383 153.366 365.029 153.576C366.647 153.668 368.263 153.758 369.882 153.826C370.161 153.838 370.547 153.819 370.972 153.798C371.974 153.749 373.198 153.689 373.773 153.993C376.992 155.696 370.433 155.883 369.636 155.869C367.851 155.839 366.067 155.751 364.283 155.663C362.724 155.586 361.166 155.509 359.605 155.47C349.595 155.224 339.524 155.674 329.496 156.122C327.198 156.224 324.901 156.327 322.609 156.421C320.174 156.521 317.741 156.586 315.307 156.65C311.828 156.742 308.35 156.835 304.871 157.03C303.543 157.105 302.215 157.184 300.887 157.263C298.985 157.376 297.082 157.49 295.179 157.59C293.689 157.668 292.198 157.745 290.706 157.782C290.438 157.789 290.088 157.826 289.705 157.867C288.78 157.965 287.668 158.084 287.066 157.838C286.343 157.543 285.758 157.129 286.156 156.253C286.492 155.512 287.714 155.601 288.605 155.666C288.849 155.684 289.067 155.699 289.236 155.696C292.084 155.641 294.926 155.481 297.769 155.307C298.809 155.243 299.848 155.178 300.887 155.112H300.888C306.3 154.772 311.707 154.432 317.132 154.34C322.722 154.244 328.308 154.052 333.895 153.861ZM369.055 198.159L370.99 198.136C371.99 198.223 372.437 199.272 371.795 200.078C371.304 200.695 369.413 200.723 368.18 200.741C367.839 200.746 367.548 200.751 367.351 200.766C364.133 201.025 360.922 201.141 357.695 201.172C350.899 201.237 344.128 201.528 337.343 201.915C330.397 202.311 323.446 202.46 316.494 202.609H316.494C311.38 202.718 306.265 202.828 301.152 203.036C298.224 203.155 295.296 203.244 292.367 203.321C292.052 203.329 291.634 203.374 291.16 203.425C289.31 203.625 286.621 203.915 286.012 202.446C285.471 201.142 286.223 200.542 287.322 200.269C287.148 199.497 287.181 198.412 287.199 197.791C287.204 197.604 287.209 197.459 287.206 197.377C287.178 196.598 287.159 195.818 287.14 195.039C287.118 194.156 287.096 193.273 287.062 192.389C287.031 191.589 287.002 190.786 286.974 189.984C286.86 186.819 286.747 183.647 286.503 180.495C286.39 179.04 286.212 177.603 286.034 176.168C285.75 173.876 285.466 171.59 285.453 169.251C285.451 168.83 285.43 168.303 285.406 167.71C285.285 164.672 285.093 159.87 286.978 158.408C290.303 156.468 289.646 162.067 289.352 164.566C289.304 164.979 289.266 165.307 289.256 165.503C289.066 169.658 289.325 173.631 289.743 177.76C290.026 180.548 289.861 183.327 289.695 186.111C289.636 187.105 289.577 188.1 289.539 189.096C289.52 189.589 289.503 190.082 289.485 190.574C289.433 192.089 289.381 193.604 289.267 195.118C289.254 195.281 289.25 195.595 289.245 195.997C289.23 197.129 289.206 198.955 288.964 200.063C289.48 200.041 289.981 200.047 290.394 200.051C290.658 200.054 290.886 200.056 291.06 200.051C291.854 200.027 292.648 200.004 293.442 199.981C295.787 199.912 298.131 199.843 300.476 199.755C306.01 199.547 311.546 199.477 317.081 199.408C323.62 199.326 330.158 199.244 336.694 198.933C347.465 198.422 358.273 198.29 369.055 198.159ZM371.053 157.536C371.047 164.654 371.598 171.577 372.241 178.666C372.639 183.051 372.957 187.453 373.211 191.849C373.224 192.053 373.221 192.392 373.22 192.818V192.819C373.206 195.25 373.178 200.488 375.582 199.235C377.396 198.289 376.699 192.802 376.313 189.766C376.228 189.101 376.158 188.553 376.133 188.196C376.081 187.437 376.029 186.678 375.977 185.919C375.735 182.395 375.494 178.873 375.176 175.353L375.109 174.611C374.741 170.545 374.373 166.482 374.307 162.397C374.302 162.06 374.335 161.59 374.372 161.058C374.478 159.52 374.619 157.472 373.98 156.656C373.081 155.507 371.055 155.846 371.053 157.536Z" fill="#444444"/>
<path opacity="0.5" fill-rule="evenodd" clip-rule="evenodd" d="M334.203 174.986C342.801 171.096 351.5 167.161 360.442 164.36C361.088 164.157 361.497 164.823 361.35 165.383C361.199 165.959 359.8 166.45 358.872 166.776C358.595 166.874 358.359 166.957 358.212 167.022C356.964 167.58 355.711 168.131 354.459 168.682C353.177 169.246 351.895 169.81 350.616 170.381C347.956 171.569 345.294 172.752 342.633 173.935C339.782 175.201 336.931 176.468 334.084 177.741C333.976 177.789 333.868 177.838 333.76 177.886C337.632 179.261 341.482 180.698 345.315 182.179C346.625 182.685 347.93 183.202 349.236 183.718C349.974 184.01 350.712 184.302 351.452 184.593C351.693 184.687 352.112 184.815 352.616 184.969C354.257 185.47 356.796 186.245 356.984 187.028C357.29 188.304 353.784 187.07 352.461 186.604C352.286 186.543 352.148 186.495 352.064 186.467C350.112 185.843 348.184 185.149 346.256 184.454L345.99 184.358C344.462 183.808 342.936 183.252 341.411 182.695C338.431 181.609 335.452 180.523 332.456 179.481C332.032 179.333 331.608 179.186 331.184 179.04C326.377 181.199 321.578 183.379 316.796 185.593C314.232 186.781 311.682 187.996 309.138 189.227C308.582 189.496 307.895 189.911 307.148 190.363C305.358 191.444 303.228 192.732 301.762 192.7C300.976 192.682 300.446 192.514 300.364 191.561C300.28 190.578 301.541 190.063 302.448 189.692C302.665 189.603 302.862 189.523 303.015 189.447C305.733 188.087 308.469 186.762 311.212 185.454C316.66 182.856 322.16 180.361 327.679 177.916C327.71 177.902 327.742 177.889 327.774 177.874C324.713 176.839 321.644 175.828 318.568 174.838C318.261 174.739 317.631 174.565 316.803 174.336C312.893 173.253 304.563 170.946 304.933 169.599C305.358 168.058 313.169 170.875 316.626 172.122C317.274 172.356 317.769 172.534 318.034 172.619C322.168 173.935 326.29 175.29 330.391 176.706C331.659 176.136 332.93 175.562 334.203 174.986Z" fill="#555555"/>
<path opacity="0.5" fill-rule="evenodd" clip-rule="evenodd" d="M297.359 208.837C299.875 209.278 301.651 211.693 301.375 214.22C301.001 217.636 297.596 219.202 294.45 218.756C290.881 218.25 290.13 215.234 291.86 212.332C292.243 211.689 292.683 210.92 293.379 210.582C293.858 210.349 294.467 210.555 294.852 210.367C296.204 209.71 295.391 208.662 297.359 208.837ZM296.212 206.606C293.141 206.998 287.466 210.552 287.753 214.107C288.002 214.519 288.377 214.688 288.878 214.613C288.757 215.383 288.797 216.145 288.996 216.899C289.287 217.877 289.87 218.68 290.649 219.316C292.255 220.629 294.451 220.951 296.451 220.721C300.186 220.292 303.129 217.74 303.339 213.856C303.543 210.065 300.234 206.098 296.212 206.606Z" fill="#555555"/>
<path opacity="0.5" fill-rule="evenodd" clip-rule="evenodd" d="M311.089 211.232C309.71 211.962 307.53 213.084 306.722 214.471C305.869 215.936 306.752 217.538 308.551 216.845C309.979 216.295 310.887 214.547 312.411 213.987C313.755 213.493 314.296 213.745 315.718 214.237C317.181 214.744 318.461 215.235 320.043 215.11C322.032 214.954 323.755 213.8 325.702 213.539C327.341 213.317 328.693 213.955 330.262 214.209C332.084 214.503 333.275 213.814 334.979 213.455C336.138 213.211 338.181 214.204 339.026 213.832C340.927 212.997 338.916 211.975 337.864 211.638C336.091 211.069 335 211.571 333.314 212.042C331.483 212.554 330.693 212.169 328.943 211.699C325.402 210.748 322.667 213.048 319.311 212.629C316.205 212.243 314.345 209.508 311.089 211.232Z" fill="#555555"/>
<path opacity="0.5" fill-rule="evenodd" clip-rule="evenodd" d="M368.98 209.533C372.388 212.727 368.559 217.272 364.802 214.719C363.48 213.821 363.458 212.377 364.487 211.086C365.429 209.905 367.497 209.445 368.98 209.533ZM367.717 206.951C364.533 207.571 361.53 209.031 361.241 212.705C360.96 216.289 364.638 217.954 367.727 217.719C374.663 217.191 374.162 205.706 367.717 206.951Z" fill="#555555"/>
</g>
<g opacity="0.5">
<path opacity="0.5" fill-rule="evenodd" clip-rule="evenodd" d="M175.549 230.944C170.676 230.999 165.806 231.178 160.943 231.486C156.319 231.779 151.301 231.557 146.752 232.453C145.46 232.707 143.715 233.884 145.433 235.179C146.64 236.089 151.057 235.043 152.498 234.953C157.808 234.627 163.12 234.236 168.436 234.049C173.469 233.871 178.502 233.808 183.538 233.758C184.307 233.751 185.583 233.504 186.349 233.727C187.449 234.048 187.188 234.135 187.27 235.531C187.419 238.061 187.378 240.599 187.328 243.131C187.279 245.581 187.188 248.031 187.198 250.482C187.203 252.231 186.645 255.706 187.522 257.224C188.785 259.411 190.096 257.036 190.19 255.584C190.371 252.805 190.29 249.993 190.291 247.211C190.292 244.6 190.311 241.988 190.219 239.378C190.152 237.493 190.421 234.202 189.405 232.488C188.371 230.742 185.88 231.119 184.062 231.036C181.227 230.905 178.386 230.915 175.549 230.944Z" fill="#555555"/>
<path opacity="0.5" fill-rule="evenodd" clip-rule="evenodd" d="M144.547 234.095C144.552 239.001 143.984 243.875 143.825 248.775C143.753 251.029 143.604 253.503 144.175 255.714C144.75 257.948 146.578 258.432 146.789 255.938C147.215 250.89 147.111 245.655 147.442 240.565C147.56 238.768 148.322 235.476 147.61 233.793C146.983 232.311 144.544 232.027 144.547 234.095Z" fill="#555555"/>
<path opacity="0.5" fill-rule="evenodd" clip-rule="evenodd" d="M190.238 255.721C181.776 256.841 172.93 256.433 164.408 256.608C160.319 256.693 156.231 256.699 152.142 256.741C150.715 256.756 147.09 256.213 145.856 257.015C143.891 258.292 146.023 259.278 147.324 259.305C155.394 259.482 163.554 259.112 171.622 258.847C175.247 258.728 178.884 258.669 182.499 258.362C184.725 258.172 187.157 257.988 189.319 257.39C189.779 257.262 190.782 257.289 190.885 256.661C190.949 256.273 190.833 255.639 190.238 255.721Z" fill="#555555"/>
<path opacity="0.5" fill-rule="evenodd" clip-rule="evenodd" d="M155.051 262.853C152.699 262.867 145.612 261.774 144.638 264.067C143.34 267.125 148.405 266.412 149.767 266.376C152.862 266.297 155.953 266.288 159.048 266.29C162.085 266.291 165.121 266.272 168.157 266.199C169.037 266.179 171.085 266.543 171.591 265.484C171.975 264.68 171.671 264.045 170.962 263.618C169.255 262.593 164.822 263.188 162.824 263.095C160.237 262.977 157.641 262.853 155.051 262.853Z" fill="#555555"/>
<path opacity="0.5" fill-rule="evenodd" clip-rule="evenodd" d="M183.662 263.419C182.318 263.499 179.6 262.945 178.396 263.56C177.027 264.259 177.51 265.353 178.691 265.834C179.509 266.167 182.865 265.993 183.662 265.607C184.493 265.205 185.432 263.31 183.662 263.419Z" fill="#555555"/>
<path opacity="0.5" fill-rule="evenodd" clip-rule="evenodd" d="M198.398 234.576C196.962 234.97 197.398 243.118 197.361 244.41C197.259 247.949 196.862 252.4 198.037 255.808C198.788 257.981 200.228 257.686 199.983 255.399C199.767 253.391 199.397 251.406 199.237 249.386C198.876 244.813 198.383 239.935 198.725 235.359C198.87 235.625 200.232 238.092 200.552 237.907C200.456 237.965 198.982 234.422 198.398 234.576Z" fill="#555555"/>
<path opacity="0.5" fill-rule="evenodd" clip-rule="evenodd" d="M214.545 231.575C211.64 231.618 208.735 231.67 205.831 231.75C203.521 231.814 199.893 231.435 197.775 232.407C195.254 233.563 196.45 236.139 198.818 236.193C200.914 236.242 203.148 235.769 205.262 235.697C210.973 235.501 216.694 235.46 222.406 235.411C227.574 235.366 232.96 235.917 238.082 235.141C238.842 241.886 236.787 248.659 237.486 255.481C237.594 256.539 237.545 258.035 238.894 258.277C240.596 258.581 240.666 256.896 240.731 255.689C240.915 252.243 240.815 248.794 241.068 245.343C241.302 242.145 241.762 238.878 241.373 235.674C240.894 231.733 239.005 232.049 235.666 231.886C228.614 231.54 221.605 231.471 214.545 231.575Z" fill="#555555"/>
<path opacity="0.5" fill-rule="evenodd" clip-rule="evenodd" d="M204.809 255.524C203.329 255.561 200.87 255.105 199.922 256.524C198.935 258.001 200.106 259.289 201.541 259.592C203.24 259.95 205.454 259.459 207.217 259.454C209.053 259.448 210.889 259.469 212.725 259.476C220.596 259.506 228.5 259.625 236.366 259.3C237.464 259.255 240.582 259.623 241.342 258.569C242.017 257.636 241.545 256.798 240.656 256.322C239.198 255.54 236.205 255.838 234.583 255.776C232.581 255.699 230.576 255.675 228.573 255.643C220.665 255.521 212.716 255.328 204.809 255.524Z" fill="#555555"/>
<path opacity="0.5" fill-rule="evenodd" clip-rule="evenodd" d="M211.467 262.35C208.522 262.4 205.379 262.271 202.463 262.717C199.899 263.11 199.583 265.589 202.343 265.878C204.88 266.145 207.955 265.647 210.504 265.483C211.409 265.425 212.462 265.508 212.896 264.507C213.349 263.462 212.483 262.459 211.467 262.35Z" fill="#555555"/>
<path opacity="0.5" fill-rule="evenodd" clip-rule="evenodd" d="M233.735 262.61C232.163 262.649 227.571 261.973 226.792 263.769C225.496 266.757 231.712 265.622 232.905 265.578C234.408 265.523 240.266 266.4 240.267 264.008C240.269 261.662 235.175 262.575 233.735 262.61Z" fill="#555555"/>
<path opacity="0.5" fill-rule="evenodd" clip-rule="evenodd" d="M144.293 277.463C144.297 282.9 143.958 288.388 144.454 293.812C144.659 296.055 144.624 300.352 145.924 302.254C146.846 303.603 148.126 303.509 148.63 301.888C148.966 300.804 148.428 298.638 148.368 297.478C148.31 296.366 148.242 295.254 148.191 294.141C148.058 291.274 148.069 288.412 148.108 285.544C148.142 283.083 148.734 279.828 148.176 277.463C147.655 275.258 144.293 274.742 144.293 277.463Z" fill="#444444"/>
<path opacity="0.5" fill-rule="evenodd" clip-rule="evenodd" d="M198.95 272.679C189.514 272.915 180.057 272.704 170.631 273.171C165.982 273.401 161.35 273.907 156.724 274.411C154.452 274.659 152.18 274.914 149.912 275.194C149.227 275.278 143.539 275.499 145.678 277.661C146.612 278.606 149.585 277.62 150.762 277.48C153.04 277.211 155.322 276.977 157.603 276.736C161.944 276.277 166.289 275.842 170.649 275.601C180.915 275.032 191.223 275.202 201.499 274.824C204.279 274.721 207.051 274.648 209.832 274.757C210.561 274.785 215.928 275.058 213.598 273.077C212.496 272.14 208.343 272.623 206.966 272.595C204.294 272.54 201.621 272.612 198.95 272.679Z" fill="#444444"/>
<path opacity="0.5" fill-rule="evenodd" clip-rule="evenodd" d="M211.812 281.84C211.766 279.328 211.719 276.815 211.604 274.305C211.484 271.662 215.086 271.262 216.153 273.401C216.923 274.942 216.787 277.563 216.671 279.809C216.625 280.714 216.581 281.559 216.601 282.247C216.647 283.825 216.763 285.457 216.88 287.109C217.177 291.27 217.483 295.567 216.705 299.494C216.326 301.402 214.717 302.405 213.645 301.365C213.643 301.367 213.642 301.369 213.64 301.372C213.237 301.966 211.983 301.964 211.058 301.963C210.804 301.963 210.574 301.963 210.395 301.975C207.863 302.147 205.378 302.437 202.869 302.813C197.869 303.563 192.913 304.023 187.859 304.148C184.43 304.233 180.996 304.261 177.562 304.29C170.984 304.345 164.404 304.399 157.847 304.849C155.636 305.001 153.46 305.261 151.286 305.677C151.1 305.712 150.895 305.758 150.676 305.807C149.059 306.166 146.719 306.687 146.559 304.428C146.369 301.747 152.18 301.395 155.171 301.215C155.628 301.187 156.019 301.164 156.312 301.136C165.394 300.292 174.618 300.423 183.737 300.552C184.179 300.558 184.621 300.564 185.062 300.571C185.774 300.581 186.485 300.592 187.196 300.604C191.101 300.668 195.001 300.733 198.904 300.494C200.681 300.385 202.481 300.329 204.284 300.274C207.16 300.184 210.044 300.095 212.858 299.79C212.433 298.145 212.359 296.205 212.289 294.376C212.262 293.663 212.235 292.968 212.189 292.313C211.942 288.827 211.877 285.334 211.812 281.84Z" fill="#444444"/>
<path opacity="0.5" fill-rule="evenodd" clip-rule="evenodd" d="M219.449 276.242C218.174 276.415 217.111 277.506 217.68 278.889C218.396 280.631 220.531 279.95 221.941 279.84C226.424 279.489 231.104 280.19 235.533 279.661C236.743 279.517 238.497 278.858 237.411 277.233C236.595 276.012 233.621 276.226 232.357 276.109C228.033 275.709 223.766 275.816 219.449 276.242Z" fill="#555555"/>
<path opacity="0.5" fill-rule="evenodd" clip-rule="evenodd" d="M227.014 283.841C225.276 283.958 221.229 283.866 220.496 285.843C219.182 289.391 224.329 288.141 225.897 287.939C227.717 287.705 232.008 288.332 232.978 286.567C234.711 283.411 228.539 283.736 227.014 283.841Z" fill="#555555"/>
<path opacity="0.5" fill-rule="evenodd" clip-rule="evenodd" d="M222.544 291.627C221.719 292.451 221.718 293.924 222.544 294.75C223.555 295.76 225.758 295.55 227.087 295.623C228.94 295.727 234.263 296.707 235.183 294.525C236.425 291.581 231.605 291.643 230.019 291.476C228.187 291.283 224.062 290.108 222.544 291.627Z" fill="#555555"/>
<path opacity="0.5" fill-rule="evenodd" clip-rule="evenodd" d="M157.577 241.236C157.577 244.401 162.521 244.401 162.521 241.236C162.521 238.088 157.577 238.04 157.577 241.236Z" fill="#555555"/>
<path opacity="0.5" fill-rule="evenodd" clip-rule="evenodd" d="M166.955 241.272C166.955 244.89 172.587 244.883 172.587 241.272C172.587 237.666 166.955 237.629 166.955 241.272Z" fill="#555555"/>
<path opacity="0.5" fill-rule="evenodd" clip-rule="evenodd" d="M161.281 246.082C158.544 246.838 161.066 249.158 162.337 249.687C164.357 250.529 167.115 251.15 169.135 249.888C169.939 249.385 170.591 248.718 170.003 247.743C169.374 246.704 168.515 247.166 167.559 247.262C166.349 247.384 165.37 247.364 164.201 246.976C163.328 246.687 162.233 245.82 161.281 246.082Z" fill="#555555"/>
<path opacity="0.5" fill-rule="evenodd" clip-rule="evenodd" d="M210.936 241.436C210.936 243.577 214.26 243.577 214.26 241.436C214.26 239.295 210.936 239.295 210.936 241.436Z" fill="#555555"/>
<path opacity="0.5" fill-rule="evenodd" clip-rule="evenodd" d="M218.288 241.758C218.288 244.137 221.982 244.137 221.982 241.758C221.982 239.38 218.288 239.38 218.288 241.758Z" fill="#555555"/>
<path opacity="0.5" fill-rule="evenodd" clip-rule="evenodd" d="M218.015 246.92C216.075 247.17 210.463 247.739 210.149 250.13C209.665 253.819 215.813 250.833 217.216 250.543C219.004 250.174 220.6 250.271 222.384 250.343C223.364 250.381 224.667 250.541 224.564 249.049C224.396 246.598 219.711 246.702 218.015 246.92Z" fill="#555555"/>
<path opacity="0.5" fill-rule="evenodd" clip-rule="evenodd" d="M169.234 280.938C167.828 281.313 165.988 283.744 166.956 285.232C168.543 287.671 169.242 283.925 169.906 283.564C171.114 282.909 172.095 285.306 173.357 284.049C175.349 282.064 170.488 280.603 169.234 280.938Z" fill="#444444"/>
<path opacity="0.5" fill-rule="evenodd" clip-rule="evenodd" d="M185.347 279.135C183.68 279.15 180.159 281.51 179.91 283.253C179.762 284.289 180.448 285.284 181.565 285.298C183.086 285.317 183.569 283.34 184.887 282.927C186.309 282.481 186.098 283.508 187.326 284.04C188.224 284.43 189.348 284.267 189.66 283.162C190.249 281.079 187.061 279.102 185.347 279.135Z" fill="#444444"/>
<path opacity="0.5" fill-rule="evenodd" clip-rule="evenodd" d="M172.582 289.115C169.915 290.677 174.303 294.027 175.825 294.447C178.122 295.079 182.745 293.898 183.289 291.093C183.506 289.976 182.808 288.965 181.575 289.165C180.561 289.33 179.91 290.603 178.97 291.058C177.701 291.673 176.573 291.632 175.495 290.706C174.617 289.951 174.147 288.202 172.582 289.115Z" fill="#444444"/>
<path opacity="0.5" fill-rule="evenodd" clip-rule="evenodd" d="M174.515 312.206C172.132 312.714 169.709 312.373 167.315 312.852C164.873 313.338 163.413 314.261 161.145 313.332C161.038 313.286 160.932 313.242 160.825 313.197C159.069 312.44 157.229 312.217 155.391 313.422C154.303 314.135 151.001 316.602 151.399 318.107C152.261 321.37 155.977 316.253 156.924 315.755C158.731 314.803 159.97 316.018 161.83 316.361C164.058 316.772 165.85 315.595 167.949 315.126C170.403 314.578 173.165 314.387 175.662 314.093C176.648 313.977 180.385 314.758 180.723 313.53C181.302 311.421 175.452 312.008 174.515 312.206Z" fill="#555555"/>
<path opacity="0.5" fill-rule="evenodd" clip-rule="evenodd" d="M191.709 318.778C191.865 318.896 191.74 318.802 191.709 318.778V318.778ZM198.384 312.079C200.424 311.872 206.952 310.415 208.292 312.523C209.165 313.895 207.779 318.962 206.458 319.618C205.402 320.142 202.942 319.563 201.783 319.522C199.626 319.446 197.465 319.412 195.31 319.278C194.588 319.232 192.263 319.365 191.697 318.726C191.028 317.971 191.058 313.947 190.901 312.949C192.776 313.556 196.423 312.278 198.384 312.079ZM202.74 310.012C200.128 310.126 197.515 310.322 194.922 310.672C193.476 310.868 192.011 311.387 190.676 311.633C190.246 311.712 189.547 311.492 189.02 311.747C187.477 312.492 188.828 317.529 189.2 318.874C189.771 320.941 191.208 321.276 193.223 321.47C195.876 321.728 198.583 321.647 201.245 321.614C203.81 321.583 207.27 322.151 208.709 319.578C209.64 317.913 210.638 314.038 209.843 312.184C208.796 309.743 204.889 309.922 202.74 310.012Z" fill="#555555"/>
<path opacity="0.5" fill-rule="evenodd" clip-rule="evenodd" d="M232.002 320.162C231.862 320.342 231.862 320.342 232.002 320.162V320.162ZM232.574 319.472C232.531 319.538 232.33 319.75 232.574 319.472V319.472ZM226.342 319.283C227.495 319.066 228.647 318.852 229.8 318.641C228.708 320.17 227.558 319.538 225.692 319.405C225.909 319.364 226.126 319.324 226.342 319.283ZM220.848 318.742C221.139 318.644 221.431 318.546 221.723 318.449C221.714 318.671 221.762 318.88 221.866 319.073C221.367 319.019 220.867 318.961 220.368 318.9C220.528 318.847 220.688 318.795 220.848 318.742ZM218.301 316.862C218.285 316.461 218.888 316.736 219.233 316.709C218.567 317.296 218.256 317.346 218.301 316.862ZM227.408 312.314C227.496 312.202 227.612 312.208 227.757 312.331C227.599 312.384 226.991 312.642 227.408 312.314ZM233.314 311.62C233.33 311.62 233.657 312.062 233.314 311.62V311.62ZM233.148 311.475C233.234 311.54 233.234 311.54 233.148 311.475V311.475ZM232.411 311.388C233.619 311.592 233.527 313.009 232.411 311.388V311.388ZM218.224 311.292C217.979 311.495 218.063 311.298 218.224 311.292V311.292ZM222.842 308.276C220.792 308.395 217.029 308.274 215.316 309.367C213.082 310.792 214.258 315.7 214.458 317.851C214.753 321.03 216.25 321.936 219.245 322.269C222.819 322.668 226.492 322.742 230.085 322.648C233.32 322.563 235.163 321.45 235.756 318.044C235.937 317.001 236.398 315.389 236.383 314.391C236.374 313.699 236.028 313.383 235.898 312.794C235.155 309.442 233.912 309.044 230.476 308.898C227.946 308.791 225.324 308.145 222.842 308.276Z" fill="#555555"/>
</g>
<g opacity="0.5">
<path opacity="0.5" fill-rule="evenodd" clip-rule="evenodd" d="M331.44 231.263C336.653 231.374 342.566 234.258 341.742 240.368C341.138 244.844 337.262 248.478 332.773 248.791C327.948 249.128 322.846 245.426 322.191 240.514C321.454 234.989 326.343 231.152 331.44 231.263ZM328.884 228.776C326.771 229.091 324.752 230.2 322.891 231.194C322.181 231.574 318.58 233.888 321.404 234.462C314.6 245.435 330.614 255.626 339.617 248.495C343.661 245.293 345.79 239.221 343.176 234.469C340.473 229.554 334.063 227.998 328.884 228.776Z" fill="#555555"/>
<path opacity="0.5" fill-rule="evenodd" clip-rule="evenodd" d="M327.638 238.115C327.638 240.164 330.819 240.164 330.819 238.115C330.819 236.066 327.638 236.066 327.638 238.115Z" fill="#555555"/>
<path opacity="0.5" fill-rule="evenodd" clip-rule="evenodd" d="M333.537 238.443C333.537 240.665 336.986 240.665 336.986 238.443C336.986 236.222 333.537 236.222 333.537 238.443Z" fill="#555555"/>
<path opacity="0.5" fill-rule="evenodd" clip-rule="evenodd" d="M329.556 242.837C329.092 244.522 334.385 245.387 334.561 243.436C334.645 242.504 329.879 241.661 329.556 242.837Z" fill="#555555"/>
<path opacity="0.5" fill-rule="evenodd" clip-rule="evenodd" d="M345.071 241.795C351.162 241.065 357.441 241.402 363.56 241.578C365.092 241.621 366.623 241.664 368.155 241.69C369.128 241.706 371.232 242.174 372.082 241.718C375.562 239.852 368.735 238.949 367.768 238.864C361.681 238.363 352.287 238.184 346.182 238.421C344.377 238.491 343.986 241.925 345.071 241.795Z" fill="#555555"/>
<path opacity="0.5" fill-rule="evenodd" clip-rule="evenodd" d="M372.476 272.064C372.528 265.684 372.757 259.261 373.248 252.901C373.447 250.308 373.687 247.719 373.886 245.126C373.979 243.905 374.413 242.195 373.695 241.123C372.956 240.019 371.333 239.79 370.355 240.768C369.184 242.283 369.524 244.826 369.378 246.659C369.154 249.477 368.884 252.293 368.75 255.117C368.49 260.584 368.429 266.145 368.869 271.604C369.076 274.179 369.526 276.693 370.124 279.205C370.397 280.349 372.564 285.442 372.109 286.145C371.403 287.234 366.183 286.822 365.05 286.853C362.144 286.931 359.238 286.981 356.331 287.037C353.843 287.084 351.355 287.119 348.866 287.141C347.878 287.149 342.072 286.973 343.36 288.438C328.958 289.441 314.281 287.766 299.967 287.192C299.244 287.162 298.061 286.958 296.969 286.898C296.839 286.371 296.731 285.9 296.704 285.572C296.516 283.272 296.467 280.964 296.263 278.665C295.89 274.458 295.167 270.293 294.736 266.093C294.306 261.898 294.35 257.69 294.099 253.484C294.057 252.763 293.955 246.86 292.465 245.426C293.172 245.694 294.311 245.728 294.967 245.675C300.277 245.247 305.548 244.325 310.812 243.533C312.318 243.307 315.736 243.467 316.985 242.714C318.066 242.063 318.494 239.778 316.613 239.963C311.364 240.525 306.143 241.398 300.935 242.256C299.542 242.486 298.153 242.732 296.763 242.983C295.836 243.151 293.387 243.138 292.667 243.697C291.793 244.376 291.701 244.838 291.997 245.145C291.585 245.032 291.092 245.21 290.499 245.803C289.378 247.261 290.432 250.853 290.565 252.563C290.726 254.614 290.805 256.668 290.898 258.723C291.078 262.699 291.495 266.621 292.135 270.55C292.852 274.95 293.462 279.37 294.181 283.769C294.368 284.915 294.612 286.032 294.924 287.139C292.987 288.129 294.304 289.704 295.839 289.983C295.85 289.986 295.862 289.987 295.873 289.989C296.352 291.157 297.021 292.238 297.544 290.674C297.584 290.554 297.603 290.406 297.608 290.24C301.575 290.689 305.936 290.41 309.842 290.57C318.303 290.916 326.816 291.434 335.285 291.171C338.638 291.067 342.001 290.769 345.326 290.322C347.274 290.06 349.229 289.747 351.146 289.313C351.283 289.282 351.492 289.25 351.733 289.21C351.772 289.208 351.812 289.208 351.849 289.207C354.785 289.163 357.717 289.084 360.65 288.962C363.111 288.86 365.584 288.808 368.038 288.575C369.562 288.431 372.783 288.458 373.718 286.925C374.569 285.532 373.147 281.943 372.945 280.378C372.59 277.622 372.454 274.84 372.476 272.064Z" fill="#555555"/>
<path opacity="0.5" fill-rule="evenodd" clip-rule="evenodd" d="M342.733 253.643C340.387 253.844 338.219 254.945 335.852 254.959C333.865 254.97 331.91 254.376 329.912 254.464C327.569 254.566 326.28 256.081 324.228 256.588C322.594 256.991 321.564 255.741 320.127 255.188C318.312 254.489 316.972 254.85 315.416 255.906C314.273 256.683 311.608 258.425 311.629 259.995C311.69 264.752 317.241 258.181 318.36 258.101C319.847 257.996 321.508 259.69 323.09 259.787C325.181 259.915 326.522 258.567 328.448 258.075C330.396 257.579 332.501 258.188 334.454 258.376C336.681 258.592 338.631 258.095 340.786 257.564C342.874 257.048 344.654 257.076 346.776 257.508C348.208 257.8 351.777 259.498 352.404 257.315C353.257 254.342 344.372 253.504 342.733 253.643Z" fill="#555555"/>
<path opacity="0.5" fill-rule="evenodd" clip-rule="evenodd" d="M343.446 262.715C338.641 263.182 333.806 263.591 328.979 263.721C326.888 263.778 318.851 262.882 319.563 265.539C320.175 267.816 331.112 266.382 333.34 266.208C335.799 266.018 338.255 265.75 340.703 265.441C341.57 265.331 343.664 265.445 344.276 264.718C344.86 264.024 344.572 262.603 343.446 262.715Z" fill="#555555"/>
<path opacity="0.5" fill-rule="evenodd" clip-rule="evenodd" d="M310.296 274.812C310.186 274.858 310.186 274.858 310.296 274.812V274.812ZM311.31 274.798C312.507 274.761 312.251 274.129 313.446 274.458C313.997 274.61 314.053 274.385 314.481 274.912C315.314 275.939 314.53 278.177 313.708 279.005C310.665 282.071 307.013 274.935 311.31 274.798ZM311.31 271.791C302.979 272.07 306.464 284.936 313.715 282.31C316.709 281.225 318.592 276.339 316.83 273.592C315.974 272.257 314.881 272.019 313.446 271.926C313.112 271.905 312.693 272.389 312.485 272.367C311.991 272.315 312.037 271.763 311.31 271.791Z" fill="#555555"/>
<path opacity="0.5" fill-rule="evenodd" clip-rule="evenodd" d="M331.231 275.253C331.083 275.207 333.861 276.015 333.558 275.699C334.207 276.373 333.334 277.969 332.6 278.247C330.822 278.922 329.825 276.158 331.231 275.253ZM332.464 271.765C329.856 272.134 327.843 273.22 327.486 276.12C327.157 278.797 328.966 281.507 331.82 281.56C338.04 281.673 338.229 270.96 332.464 271.765Z" fill="#555555"/>
<path opacity="0.5" fill-rule="evenodd" clip-rule="evenodd" d="M360.858 275.37C361.222 280.124 356.292 275.773 360.858 275.37V275.37ZM358.742 270.285C358.311 271.022 358.679 271.803 359.329 272.232C353.514 273.461 354.831 282.21 360.749 280.917C363.758 280.26 364.311 277.096 363.863 274.484C363.649 273.242 360.553 267.189 358.742 270.285Z" fill="#555555"/>
</g>
<path opacity="0.5" fill-rule="evenodd" clip-rule="evenodd" d="M394.83 282.402C392.14 282.761 385.783 284.99 385.838 287.385C385.924 291.122 391.327 287.039 392.529 286.491C398.986 283.541 407.349 287.363 414.072 288.176C417.155 288.549 423.184 289.238 425.907 287.687C430.749 284.93 419.551 285.62 418.125 285.509C410.373 284.909 402.662 281.352 394.83 282.402Z" fill="#555555"/>
<g opacity="0.5">
<path opacity="0.5" fill-rule="evenodd" clip-rule="evenodd" d="M454.381 252.286C454.379 255.57 454.213 258.922 454.819 262.166C455.002 263.148 455.147 265.029 456.182 265.539C457.224 266.051 458.233 265.476 458.491 264.409C458.793 263.168 458.132 261.31 458.065 260.007C457.973 258.226 457.966 256.444 457.966 254.662C457.965 253.375 458.389 251.304 456.868 250.642C455.739 250.149 454.381 251.065 454.381 252.286Z" fill="#555555"/>
<path opacity="0.5" fill-rule="evenodd" clip-rule="evenodd" d="M506.302 247.093C495.421 248.185 484.383 248.412 473.462 248.981C468.414 249.244 462.313 248.909 457.558 250.863C456.675 251.225 453.512 253.244 456.08 254.067C456.88 254.323 457.693 253.461 458.35 253.172C459.445 252.692 460.712 252.543 461.879 252.355C471.802 250.762 482.181 251.039 492.207 250.295C494.775 250.104 497.346 249.908 499.909 249.656C501.741 249.475 505.59 248.156 507.28 248.83C510.168 249.984 510.101 257.479 510.157 260.056C510.187 261.389 508.893 266.174 511.466 265.689C513.524 265.301 512.779 260.33 512.618 258.97C512.197 255.406 511.48 246.568 506.302 247.093Z" fill="#555555"/>
<path opacity="0.5" fill-rule="evenodd" clip-rule="evenodd" d="M510.315 265.516C500.863 266.369 491.194 265.532 481.703 265.868C476.729 266.044 471.759 266.324 466.784 266.488C464.632 266.559 462.478 266.562 460.326 266.578C459.296 266.585 454.61 267.209 457.509 269.25C458.792 270.153 462.883 269.425 464.355 269.408C466.568 269.382 468.778 269.29 470.989 269.203C476.109 269.003 481.226 268.726 486.349 268.587C491.249 268.454 496.152 268.426 501.052 268.294C503.49 268.227 505.962 268.153 508.378 267.797C508.924 267.717 510.695 267.652 511.074 267.045C511.432 266.47 511.18 265.433 510.315 265.516Z" fill="#555555"/>
<path opacity="0.5" fill-rule="evenodd" clip-rule="evenodd" d="M463.862 258.421C463.812 258.542 463.812 258.542 463.862 258.421V258.421ZM467.955 257.177C468.104 257.241 468.104 257.241 467.955 257.177V257.177ZM467.764 257.143C469.969 259.391 466.577 262.074 464.511 259.88C462.318 257.552 466.344 257.15 467.764 257.143ZM465.424 253.742C457.827 255.094 460.516 265.218 467.613 263.754C470.728 263.112 472.509 259.975 471.437 256.961C471.018 255.783 470.105 254.491 468.834 254.119C468.2 253.934 467.639 254.225 467.035 254.158C466.459 254.092 466.139 253.613 465.424 253.742Z" fill="#555555"/>
<path opacity="0.5" fill-rule="evenodd" clip-rule="evenodd" d="M494.501 256.592C489.92 256.606 485.337 256.801 480.756 256.888C479.351 256.914 475.74 256.285 475.735 258.5C475.728 260.866 479.751 259.993 481.089 259.961C485.633 259.852 490.189 259.653 494.714 259.221C495.858 259.111 499.815 259.3 499.811 257.745C499.806 256.098 495.424 256.592 494.501 256.592Z" fill="#555555"/>
<path opacity="0.5" fill-rule="evenodd" clip-rule="evenodd" d="M505.443 272.036C494.113 272.34 482.799 272.446 471.477 273.026C467.242 273.243 463.013 273.404 458.772 273.404C457.955 273.404 456.31 273.088 455.542 273.602C453.455 274.997 455.831 276.195 457.191 276.27C466.492 276.786 475.927 275.501 485.223 275.212C490.665 275.042 496.107 274.992 501.546 274.715C503.03 274.64 504.514 274.552 505.995 274.437C506.847 274.371 509.1 274.552 509.788 274.054C512.795 271.878 506.457 272.009 505.443 272.036Z" fill="#555555"/>
<path opacity="0.5" fill-rule="evenodd" clip-rule="evenodd" d="M453.455 277.576C453.349 280.513 453.338 283.399 453.722 286.32C453.873 287.469 453.943 288.774 455.29 289.066C456.514 289.33 457.135 288.405 457.388 287.379C458.007 284.874 457.462 281.267 457.455 278.665C457.452 277.377 457.45 275.937 455.86 275.646C454.646 275.424 453.502 276.301 453.455 277.576Z" fill="#555555"/>
<path opacity="0.5" fill-rule="evenodd" clip-rule="evenodd" d="M517.454 284.657C499.112 285.623 480.794 286.467 462.439 287.242C461.007 287.303 449.887 287.182 453.775 291.059C454.975 292.257 458.069 291.446 459.622 291.37C461.955 291.255 464.29 291.167 466.624 291.049C475.876 290.578 485.153 290.451 494.398 289.922C499.486 289.631 504.562 289.176 509.624 288.584C512.031 288.302 515.02 288.331 517.274 287.388C518.435 286.903 519.686 284.538 517.454 284.657Z" fill="#555555"/>
<path opacity="0.5" fill-rule="evenodd" clip-rule="evenodd" d="M506.907 269.757C505.512 271.146 506.229 273.886 506.335 275.603C506.479 277.965 506.655 280.329 506.95 282.679C507.142 284.205 507.04 286.581 507.855 287.899C508.809 289.443 510.908 289.272 511.77 287.78C512.533 286.461 512.147 283.686 512.127 282.224C512.1 280.202 511.974 278.178 511.854 276.161C511.754 274.474 512.136 271.772 511.208 270.329C510.266 268.863 508.215 268.457 506.907 269.757Z" fill="#555555"/>
<path opacity="0.5" fill-rule="evenodd" clip-rule="evenodd" d="M464.983 280.536C464.82 280.662 464.82 280.662 464.983 280.536V280.536ZM468.241 280.128C471.281 280.739 466.366 284.287 464.812 281.852C464.57 281.472 464.443 281.004 464.833 280.673C465.188 280.371 465.412 280.906 465.747 280.762C466.326 280.515 467.624 280.105 468.241 280.128ZM467.822 277.214C465.746 277.379 462.893 277.507 461.866 279.587C460.486 282.381 462.846 285.117 465.576 285.542C468.204 285.951 472.126 284.496 472.337 281.432C472.506 278.962 470.156 277.025 467.822 277.214Z" fill="#555555"/>
<path opacity="0.5" fill-rule="evenodd" clip-rule="evenodd" d="M485.149 278.692C483 278.727 478.777 278.092 476.905 279.138C475.053 280.175 475.879 282.019 477.569 282.461C478.686 282.753 480.511 282.282 481.674 282.234C483.203 282.172 484.734 282.159 486.265 282.138C488.839 282.103 491.412 282.132 493.986 282.132C496.615 282.132 499.289 282.204 501.913 282.011C505.235 281.767 505.145 279.281 501.897 278.969C496.38 278.441 490.684 278.605 485.149 278.692Z" fill="#555555"/>
<path opacity="0.5" fill-rule="evenodd" clip-rule="evenodd" d="M479.661 306.536C479.661 307.717 480.709 306.536 480.701 306.536C480.709 306.536 479.661 305.355 479.661 306.536Z" fill="#555555"/>
<path opacity="0.5" fill-rule="evenodd" clip-rule="evenodd" d="M455.949 297.027C456.016 300.461 456.061 303.897 456.207 307.328C456.254 308.413 455.943 310.531 457.258 311.085C458.722 311.7 459.177 310.166 459.346 309.126C459.88 305.832 459.357 302.071 459.305 298.737C459.288 297.618 459.53 296.061 458.259 295.503C457.222 295.047 455.928 295.892 455.949 297.027Z" fill="#555555"/>
<path opacity="0.5" fill-rule="evenodd" clip-rule="evenodd" d="M512.422 297.081C512.509 297.286 512.509 297.286 512.422 297.081V297.081ZM512.545 297.047C512.616 297.076 512.9 297.195 512.545 297.047V297.047ZM484.803 294.271C479.531 294.354 474.256 294.417 468.987 294.642C466.739 294.739 464.464 294.817 462.223 295.028C460.636 295.179 456.694 295.241 455.664 296.538C453.54 299.215 458.044 298.484 459.015 298.267C460.781 297.871 462.583 297.745 464.387 297.649C468.301 297.443 472.217 297.333 476.136 297.254C486.764 297.04 497.4 297.073 508.029 297.025C509.058 297.02 510.919 296.606 511.869 297.022C512.821 297.44 512.768 298.465 512.867 299.656C512.998 301.24 511.953 304.26 512.749 305.592C513.985 307.66 515.781 305.904 516.056 304.397C516.435 302.315 515.834 299.814 515.245 297.824C514.414 295.015 513.261 294.904 510.544 294.684C507.369 294.428 504.207 294.272 501.022 294.243C495.616 294.193 490.208 294.188 484.803 294.271Z" fill="#555555"/>
<path opacity="0.5" fill-rule="evenodd" clip-rule="evenodd" d="M505.655 308.464C494.22 309.792 482.46 309.01 470.964 309.056C468.169 309.068 465.371 309.09 462.578 309.226C461.103 309.298 457.607 308.891 456.596 310.028C454.466 312.427 458.303 312.776 459.704 312.676C462.536 312.475 465.375 312.383 468.215 312.361C478.217 312.284 488.275 312.75 498.269 312.257C502.456 312.051 506.549 311.334 510.659 310.534C511.569 310.357 517.801 309.173 514.248 307.752C512.148 306.913 507.861 308.207 505.655 308.464Z" fill="#555555"/>
<path opacity="0.5" fill-rule="evenodd" clip-rule="evenodd" d="M472.268 304.074C472.189 304.176 472.189 304.176 472.268 304.074V304.074ZM472.192 304.056C472.165 304.129 472.081 304.311 472.192 304.056V304.056ZM471.471 303.126C471.487 303.147 471.555 303.235 471.471 303.126V303.126ZM471.443 303.119C471.718 303.448 471.903 303.814 471.999 304.218C469.63 304.86 468.717 302.944 471.443 303.119ZM471.293 303.03C471.294 303.03 471.627 303.17 471.293 303.03V303.03ZM467.401 300.175C465.868 302.083 464.602 304.308 466.514 306.489C468.223 308.439 471.661 308.69 473.831 307.389C476.065 306.048 475.873 303.224 474.314 301.381C473.31 300.194 472.497 300.227 471.04 300.033C470.049 299.902 468.242 299.131 467.401 300.175Z" fill="#555555"/>
<path opacity="0.5" fill-rule="evenodd" clip-rule="evenodd" d="M483.251 303.708C483.251 306.25 494.229 305.156 496.183 305.153C497.819 305.151 507.712 306.053 507.002 303.437C506.418 301.288 496.674 302.356 494.598 302.353C492.805 302.35 483.251 301.119 483.251 303.708Z" fill="#555555"/>
</g>
<g opacity="0.5">
<path opacity="0.5" fill-rule="evenodd" clip-rule="evenodd" d="M339.924 327.525C345.422 328.323 351.141 330.909 351.093 337.308C351.053 342.687 346.54 348.413 340.745 348.092C335.53 347.803 330.619 342.101 329.966 337.214C329.627 334.682 330.261 331.957 331.75 329.874C333.702 327.146 336.798 327.15 339.924 327.525ZM337.327 324.048C333.35 324.069 330.441 325.507 327.98 328.543C327.097 329.632 326.07 330.803 325.398 332.037C324.771 333.189 324.881 336.118 327.034 334.744C326.504 340.415 329.819 345.918 334.584 348.824C339.763 351.983 345.618 351.367 349.929 346.94C353.874 342.887 355.263 336.042 352.376 331.03C349.491 326.021 342.806 323.994 337.327 324.048Z" fill="#555555"/>
<path opacity="0.5" fill-rule="evenodd" clip-rule="evenodd" d="M349.251 322.528C346.705 324.393 344.381 326.85 342.45 329.342C340.563 331.778 339.315 334.818 337.048 336.942C335.903 335.695 334.562 332.328 332.278 333.664C330.382 334.772 331.603 336.679 332.526 337.93C334.909 341.163 337.556 342.464 340.613 339.27C343.389 336.37 344.966 332.501 347.562 329.434C348.7 328.089 350.46 326.753 351.366 325.267C352.188 323.92 351.172 321.117 349.251 322.528Z" fill="#555555"/>
</g>
<g opacity="0.5">
<path opacity="0.5" fill-rule="evenodd" clip-rule="evenodd" d="M445.467 120.212C445.471 120.467 445.475 120.706 445.48 120.926C445.599 125.728 445.53 130.776 445.14 135.567C445.005 137.222 443.801 139.318 442.428 137.038C441.824 136.035 441.909 133.977 441.971 132.462C441.988 132.055 442.003 131.689 442.003 131.392C442.002 129.702 442.09 127.995 442.179 126.282C442.354 122.936 442.529 119.571 442.033 116.285C442.023 116.218 442.013 116.154 442.005 116.093C441.789 114.647 441.775 114.547 440.185 114.58C439.522 114.594 438.859 114.612 438.197 114.63C437.545 114.647 436.893 114.665 436.241 114.679C435.593 114.693 434.946 114.705 434.299 114.717C432.269 114.756 430.238 114.795 428.209 114.869C427.87 114.882 427.238 114.961 426.441 115.061C424.847 115.261 422.591 115.544 420.693 115.543C420.693 115.551 420.694 115.559 420.694 115.567C420.695 115.582 420.697 115.596 420.697 115.611C420.718 116.659 420.448 117.829 420.177 119.004C419.95 119.988 419.722 120.976 419.664 121.899C419.524 124.096 419.523 126.316 419.521 128.537C419.519 131.24 419.517 133.944 419.267 136.605C419.255 136.735 419.247 136.872 419.24 137.011C419.239 137.029 419.238 137.048 419.237 137.066C419.323 137.053 419.406 137.044 419.487 137.039C420.855 136.952 422.235 136.944 423.612 136.936C424.372 136.932 425.131 136.928 425.887 136.91C427.245 136.879 428.62 136.881 430 136.882C433.047 136.885 436.12 136.889 439.1 136.538C439.98 136.424 440.288 137.552 439.893 138.137C439.54 138.661 438.566 138.746 437.854 138.808C437.673 138.824 437.508 138.838 437.375 138.858C435.453 139.142 433.506 139.242 431.566 139.328C429.53 139.418 427.491 139.485 425.453 139.542C424.968 139.556 424.321 139.621 423.603 139.693C421.708 139.885 419.322 140.126 418.138 139.59C416.865 139.015 416.895 138.376 417.414 137.881C417.186 137.379 417.151 136.648 417.122 136.075C417.112 135.857 417.102 135.661 417.083 135.511C416.801 133.232 416.631 130.982 416.626 128.683C416.618 124.18 416.628 119.504 417.874 115.145C417.374 114.927 417.074 114.605 417.075 114.141C417.081 111.802 424.36 111.921 427.82 111.978C428.439 111.988 428.935 111.996 429.247 111.988C431.767 111.922 434.288 111.913 436.81 111.927C437.342 111.93 437.935 111.895 438.549 111.859C439.856 111.782 441.26 111.7 442.388 111.962C445.353 112.65 445.424 117.371 445.467 120.212Z" fill="#555555"/>
<path opacity="0.5" fill-rule="evenodd" clip-rule="evenodd" d="M464.01 112.474C466.763 112.328 469.517 112.296 472.273 112.285C475.191 112.271 478.114 112.323 481.03 112.412L481.098 112.415C482.39 112.453 489.574 112.669 486.274 114.459C486.082 114.564 485.865 114.65 485.628 114.723C485.768 115.552 485.785 116.407 485.762 116.819C485.677 118.383 485.621 119.948 485.565 121.513C485.527 122.573 485.489 123.634 485.441 124.694C485.312 127.622 485.188 130.551 485.087 133.482C485.075 133.841 485.094 134.311 485.115 134.836C485.185 136.569 485.279 138.892 484.338 139.751C483.511 140.504 482.947 140.353 482.566 139.841C480.202 140.528 475.345 140.305 472.904 140.192C472.315 140.165 471.867 140.144 471.628 140.144C471.2 140.145 470.404 140.198 469.4 140.266C465.219 140.546 457.413 141.071 457.398 139.01C457.396 138.812 457.46 138.634 457.582 138.474C457.25 138.137 456.952 137.641 456.761 137.021C456.074 134.798 456.009 132.4 455.958 130.095C455.886 126.84 455.885 123.582 455.885 120.324C455.884 118.651 455.883 116.978 455.874 115.306C455.426 114.706 455.692 114.019 456.25 113.541C457.437 112.522 460.384 112.509 462.516 112.5C463.09 112.498 463.605 112.496 464.01 112.474ZM459.531 137.571C462.184 137.004 466.655 137.187 469.049 137.284C469.677 137.31 470.162 137.329 470.435 137.328C472.881 137.319 475.327 137.353 477.772 137.451C478.025 137.461 478.4 137.451 478.842 137.44C479.73 137.418 480.886 137.388 481.869 137.498C481.856 137.364 481.847 137.243 481.842 137.137C481.731 134.962 481.811 132.768 481.89 130.586C481.907 130.122 481.923 129.659 481.938 129.197C481.991 127.566 482.061 125.935 482.131 124.305V124.304C482.174 123.277 482.218 122.251 482.258 121.224C482.275 120.774 482.249 120.161 482.22 119.473C482.161 118.073 482.088 116.355 482.339 115.035C481.434 115.019 480.507 114.954 479.656 114.895C478.837 114.839 478.089 114.787 477.5 114.787C476.754 114.787 476.009 114.784 475.263 114.782C473.195 114.776 471.129 114.769 469.062 114.81C468.867 114.815 468.671 114.818 468.474 114.822C465.628 114.877 462.758 114.932 459.936 115.307C459.771 115.329 459.572 115.371 459.352 115.423C459.662 116.716 459.51 118.538 459.378 120.134C459.313 120.908 459.253 121.63 459.252 122.212C459.248 125.83 459.343 129.433 459.439 133.033V133.033C459.475 134.395 459.511 135.756 459.542 137.117C459.546 137.28 459.542 137.431 459.531 137.571Z" fill="#555555"/>
<path opacity="0.5" fill-rule="evenodd" clip-rule="evenodd" d="M429.335 139.437C427.526 140.494 428.502 144.721 429.129 146.182C430.159 148.585 432.249 150.466 434.505 151.714C439.064 154.235 445.635 153.565 449.083 157.937C449.119 157.982 450.311 159.162 450.582 157.634C450.805 156.38 448.58 154.466 447.718 153.837C445.266 152.05 442.122 151.474 439.286 150.581C436.261 149.63 432.942 147.874 431.674 144.757C431.225 143.653 432.081 137.826 429.335 139.437Z" fill="#555555"/>
<path opacity="0.5" fill-rule="evenodd" clip-rule="evenodd" d="M470.688 141.469C469.03 141.926 470.126 144.207 470.124 145.349C470.121 146.773 469.665 148.264 468.787 149.401C466.56 152.284 462.2 152.716 458.93 153.543C456.557 154.144 450.877 155.431 450.655 158.641C450.407 162.225 455.421 157.863 455.845 157.684C460.531 155.966 466.594 155.634 470.211 151.851C471.704 150.289 472.586 148.205 472.727 146.053C472.806 144.842 472.819 140.887 470.688 141.469Z" fill="#555555"/>
<path opacity="0.5" fill-rule="evenodd" clip-rule="evenodd" d="M436.436 173.263C436.397 166.631 442.745 162.619 448.485 161.11C455.385 159.293 461.812 164.126 462.625 171.079C463.484 178.417 457.952 184.324 450.658 184.648C444.24 184.932 436.477 180.339 436.436 173.263ZM451.848 164.299C452.221 164.806 452.558 165.615 451.806 166.056C451.083 166.478 450.722 165.971 450.358 165.461C450.128 165.139 449.898 164.816 449.574 164.724C448.736 164.488 447.388 165.37 446.689 165.884C446.406 166.093 446.002 166.542 445.53 167.068C444.029 168.74 441.836 171.181 440.624 169.081C435.791 177.425 447.84 183.669 454.692 180.511C462.217 177.043 460.752 164.365 451.848 164.299Z" fill="#555555"/>
<path opacity="0.5" fill-rule="evenodd" clip-rule="evenodd" d="M445.533 171.043C445.533 172.565 447.937 172.565 447.937 171.043C447.937 169.538 445.533 169.473 445.533 171.043Z" fill="#555555"/>
<path opacity="0.5" fill-rule="evenodd" clip-rule="evenodd" d="M449.763 170.756C449.763 172.621 452.71 172.621 452.71 170.756C452.71 168.913 449.763 168.835 449.763 170.756Z" fill="#555555"/>
<path opacity="0.5" fill-rule="evenodd" clip-rule="evenodd" d="M446.736 175.102C444.327 176.518 451.217 179.334 451.489 176.457C451.607 175.216 450.404 175.55 449.603 175.459C448.836 175.372 447.464 174.678 446.736 175.102Z" fill="#555555"/>
<path opacity="0.5" fill-rule="evenodd" clip-rule="evenodd" d="M445.691 185.155C445.796 188.775 445.745 192.392 446.432 195.961C446.563 196.639 446.653 199.097 447.189 199.601C448.507 200.84 448.529 198.465 448.58 197.556C448.763 194.297 448.42 190.937 448.345 187.671C448.328 186.968 448.515 185.512 448.183 184.832C447.656 183.752 445.639 183.431 445.691 185.155Z" fill="#555555"/>
<path opacity="0.5" fill-rule="evenodd" clip-rule="evenodd" d="M443.114 182.221C437.831 188.148 430.557 187.712 423.228 188.231C419.356 188.505 415.441 189.068 412.325 191.572C410.876 192.738 409.627 194.197 408.787 195.859C408.42 196.586 406.679 200.781 409.294 199.786C410.221 199.433 411.133 196.659 411.733 195.838C412.876 194.276 414.337 192.986 416.09 192.147C419.472 190.53 423.511 190.557 427.178 190.352C431.011 190.138 435.125 189.937 438.648 188.27C440.306 187.487 441.861 186.509 443.195 185.249C443.672 184.798 444.694 184.033 444.77 183.344C444.857 182.557 444.1 181.116 443.114 182.221Z" fill="#555555"/>
<path opacity="0.5" fill-rule="evenodd" clip-rule="evenodd" d="M416.446 200.415C411.484 200.581 406.528 200.781 401.572 201.095C400.557 201.16 397.171 200.954 398.034 203.035C398.725 204.702 402.854 203.599 404.22 203.518C409.383 203.212 414.568 203.106 419.721 202.641C420.878 202.537 426.11 202.579 423.95 200.528C422.922 199.551 417.866 200.367 416.446 200.415Z" fill="#555555"/>
<path opacity="0.5" fill-rule="evenodd" clip-rule="evenodd" d="M394.883 202.808C393.319 204.862 394.038 209.854 394.156 212.323C394.27 214.715 393.805 219.09 396.929 219.461C395.937 219.331 397.682 219.521 397.966 219.536C398.6 219.571 399.238 219.582 399.873 219.588C401.34 219.605 402.808 219.585 404.275 219.555C407.598 219.49 410.929 219.392 414.248 219.209C415.643 219.132 423.211 219.196 423.511 217.747C423.893 215.896 416.637 216.943 415.338 217.002C412.175 217.147 409.007 217.178 405.841 217.219C404.271 217.24 402.7 217.256 401.131 217.225C400.483 217.212 397.917 217.478 397.523 217.046C397.187 216.678 397.449 213.295 397.442 212.777C397.419 211.091 397.421 209.4 397.481 207.714C397.521 206.579 398.135 204.419 397.635 203.353C397.148 202.316 395.731 201.962 394.883 202.808Z" fill="#555555"/>
<path opacity="0.5" fill-rule="evenodd" clip-rule="evenodd" d="M420.434 202.904C420.525 206.661 420.553 210.494 421.44 214.169C421.736 215.392 422.15 217.914 423.379 218.547C424.668 219.211 425.782 218.263 425.866 216.985C425.972 215.379 425.112 213.27 424.935 211.622C424.729 209.699 424.61 207.775 424.539 205.842C424.486 204.389 424.928 202.21 423.542 201.273C422.297 200.431 420.394 201.279 420.434 202.904Z" fill="#555555"/>
<path opacity="0.5" fill-rule="evenodd" clip-rule="evenodd" d="M430.309 201.987C428.766 203.524 429.455 208.39 429.648 210.365C429.79 211.811 431.373 218.926 433.746 215.216C434.796 213.575 433.462 209.235 433.472 207.321C433.477 206.102 433.909 204.561 433.701 203.39C433.425 201.842 431.709 200.589 430.309 201.987Z" fill="#555555"/>
<path opacity="0.5" fill-rule="evenodd" clip-rule="evenodd" d="M440.995 200.718C445.63 200.24 450.271 199.881 454.932 199.837C455.156 199.835 455.391 199.832 455.636 199.829C458.83 199.789 463.631 199.727 465.781 202.126C466.952 203.432 467.483 205.452 467.945 207.213C468.032 207.541 468.115 207.861 468.2 208.165C468.273 208.425 468.368 208.721 468.471 209.041C468.953 210.553 469.607 212.598 468.944 213.864C468.581 214.559 467.996 215.151 467.108 214.905C466.901 214.847 466.739 214.774 466.611 214.687C466.951 215.055 467.102 215.579 466.881 216.092C466.454 217.083 465.105 217.104 464.043 217.12C463.786 217.124 463.544 217.128 463.338 217.146C459.799 217.441 456.243 217.637 452.691 217.669C451.001 217.683 449.309 217.669 447.618 217.656C445.877 217.641 444.137 217.627 442.396 217.644C441.133 217.656 439.846 217.777 438.559 217.897C436.933 218.048 435.308 218.2 433.727 218.135C432.545 218.087 431.282 217.7 431.582 216.172C431.827 214.925 433.001 214.816 434.053 214.718C434.144 214.71 434.235 214.701 434.324 214.692C437.674 214.351 441.027 214.231 444.394 214.243C451.469 214.267 458.537 214.231 465.612 214.194C465.902 214.218 466.176 214.329 466.402 214.498C466.147 214.189 466.152 213.777 466.157 213.34C466.16 213.141 466.162 212.937 466.141 212.735C466.097 212.329 466.057 211.924 466.018 211.52C465.887 210.184 465.757 208.859 465.503 207.516C465.464 207.313 465.427 207.09 465.388 206.854C465.156 205.46 464.85 203.612 463.741 202.859C462.626 202.102 460.439 202.139 458.736 202.167C458.275 202.175 457.851 202.182 457.491 202.172C452.945 202.055 448.371 202.378 443.845 202.789C443.498 202.821 443.149 202.851 442.801 202.882C441.079 203.032 439.348 203.183 437.651 203.49C437.34 203.547 436.866 203.712 436.321 203.902C434.873 204.407 432.932 205.085 432.272 204.339C430.087 201.868 439.691 200.853 440.995 200.718Z" fill="#555555"/>
<path opacity="0.5" fill-rule="evenodd" clip-rule="evenodd" d="M490.311 195.091C490.513 195.35 490.513 195.35 490.311 195.091V195.091ZM458.943 179.78C456.127 181.435 461.338 186.29 462.665 187.04C465.652 188.73 469.757 188.985 473.092 189.46C477.313 190.062 481.907 190.283 485.964 191.666C487.692 192.255 488.79 193.175 489.922 194.588C490.495 195.305 491.876 198.391 493.134 197.66C495.666 196.189 488.843 190.014 487.34 189.35C483.923 187.841 479.883 187.418 476.229 186.832C472.832 186.287 469.361 185.881 466.048 184.92C464.226 184.392 462.931 183.54 461.88 181.909C461.226 180.892 460.689 178.759 458.943 179.78Z" fill="#555555"/>
<path opacity="0.5" fill-rule="evenodd" clip-rule="evenodd" d="M502.101 198.745C498.855 198.817 495.616 199.067 492.377 199.316C490.559 199.456 488.743 199.596 486.925 199.705C486.357 199.739 485.788 199.769 485.219 199.8C483.617 199.886 482.014 199.972 480.42 200.134C480.178 200.158 479.898 200.181 479.592 200.206C478.238 200.317 476.393 200.469 475.214 200.962C474.133 200.145 472.464 200.84 472.438 202.297C472.394 204.951 472.418 207.559 472.742 210.197C472.817 210.809 473.204 213.91 474.046 215.524C473.747 217.048 475.046 217.475 476.256 217.592C480.941 218.044 485.853 217.693 490.699 217.347C493.164 217.171 495.612 216.996 498.003 216.928C498.799 216.906 499.604 216.897 500.415 216.888C503.059 216.858 505.755 216.828 508.315 216.328C508.418 216.308 508.528 216.288 508.644 216.267C509.656 216.086 511.052 215.836 511.158 214.722C511.222 214.054 510.844 213.442 510.213 213.356C510.257 212.799 510.187 212.191 510.135 211.745C510.123 211.64 510.112 211.545 510.104 211.461C509.95 209.912 509.564 208.374 509.183 206.855C509.098 206.513 509.013 206.172 508.93 205.833C508.839 205.457 508.754 205.01 508.663 204.528C508.341 202.826 507.936 200.688 506.861 199.695C505.733 198.654 503.896 198.7 502.425 198.737C502.315 198.74 502.207 198.743 502.101 198.745ZM507.813 213.522C507.428 212.515 507.316 211.153 507.209 209.858C507.142 209.046 507.076 208.259 506.948 207.604C506.851 207.112 506.771 206.594 506.691 206.067C506.496 204.788 506.292 203.458 505.812 202.337C505.169 200.835 504.596 200.892 503.241 201.028C502.99 201.054 502.71 201.082 502.399 201.103C501.019 201.197 499.639 201.316 498.26 201.435C497.599 201.493 496.937 201.55 496.275 201.604C493.443 201.837 490.61 202.016 487.776 202.195C486.121 202.299 484.465 202.404 482.81 202.519C481.51 202.609 480.242 202.856 478.979 203.102C477.979 203.297 476.982 203.491 475.976 203.606C475.961 203.95 475.932 204.296 475.905 204.625C475.867 205.073 475.832 205.49 475.84 205.832C475.873 207.348 476.006 208.855 476.141 210.364C476.161 210.596 476.182 210.828 476.202 211.06C476.226 211.339 476.286 211.696 476.353 212.093C476.455 212.706 476.574 213.413 476.6 214.063C476.722 214.063 476.845 214.063 476.964 214.063C477.119 214.064 477.271 214.065 477.418 214.062C480.985 214 484.551 213.892 488.116 213.755C488.572 213.737 489.027 213.719 489.482 213.702C492.663 213.578 495.844 213.454 499.028 213.417C500.293 213.403 501.575 213.443 502.86 213.483C504.514 213.534 506.174 213.585 507.813 213.522Z" fill="#555555"/>
</g>
<path fill-rule="evenodd" clip-rule="evenodd" d="M430.944 234.346C427.198 236.603 423.517 237.693 421.79 237.248C417.458 236.132 417.06 220.288 420.412 214.042C423.763 207.796 440.994 205.074 441.862 217.449C442.164 221.744 440.36 225.577 437.695 228.705L442.474 250.975H428.592L430.944 234.346Z" fill="#B28B67"/>
<path fill-rule="evenodd" clip-rule="evenodd" d="M438.762 231.491C440.504 223.741 445.467 218.458 444.709 214.995C443.951 211.531 440.669 210.687 440.669 210.687C440.669 210.687 438.97 203.82 429.717 204.845C420.463 205.871 414.815 209.713 417.255 218.168C419.496 218.168 422.203 217.357 425.946 218.746C427.727 219.407 428.494 222.846 428.494 222.846H430.185C430.185 222.846 432.647 218.765 435.041 219.846C437.434 220.928 436.129 225.102 436.129 225.102L436.962 231.491H438.762Z" fill="#191847"/>
<path fill-rule="evenodd" clip-rule="evenodd" d="M481.226 323.26C486.338 323.26 490.481 327.402 490.481 332.513V385.715C490.481 390.825 486.338 394.967 481.226 394.967H414.711C409.6 394.967 405.456 390.825 405.456 385.715V332.513C405.456 327.402 409.6 323.26 414.711 323.26H481.226ZM471.972 339.452C473.25 339.452 474.286 340.488 474.286 341.765V376.462C474.286 377.739 473.25 378.775 471.972 378.775H423.965C422.687 378.775 421.652 377.739 421.652 376.462V341.765C421.652 340.488 422.687 339.452 423.965 339.452H471.972Z" fill="#969696"/>
<path fill-rule="evenodd" clip-rule="evenodd" d="M348.103 392.076C359.507 378.153 367.223 367.831 371.251 361.111C378.149 349.604 383.794 339.364 385.575 335.453C389.824 326.125 375.795 321.758 372.62 326.109C367.815 332.693 357.552 353.413 341.833 388.269L348.103 392.076Z" fill="#B28B67"/>
<path fill-rule="evenodd" clip-rule="evenodd" d="M371.471 388.028L392.694 334.616C397.233 324.879 375.313 318.479 371.977 323.01C364.404 333.297 346.403 373.88 344.146 376.944L371.471 388.028Z" fill="#444444"/>
<path fill-rule="evenodd" clip-rule="evenodd" d="M427.995 377.316C423.86 371.287 408.823 351.003 400.633 342.61C398.28 340.199 395.983 337.884 393.811 335.726C387.355 329.315 374.498 340.092 380.943 345.932C396.992 360.476 420.407 380.109 422.364 381.86C425.106 384.313 430.593 381.105 427.995 377.316Z" fill="#B28B67"/>
<path fill-rule="evenodd" clip-rule="evenodd" d="M425.316 374.834C425.717 374.288 426.493 374.159 427.011 374.595C427.957 375.39 429.316 376.615 429.808 377.465C430.59 378.819 431.639 381.679 431.639 381.679C430.067 382.586 403.387 397.987 403.387 397.987C403.387 397.987 400.184 394.983 402.389 393.323C404.594 391.663 406.028 390.523 406.028 390.523L415.78 377.091C415.971 376.827 416.342 376.773 416.6 376.972L418.627 378.532C418.627 378.532 421.415 378.289 422.788 377.496C423.624 377.013 424.645 375.75 425.316 374.834Z" fill="#E4E4E4"/>
<path fill-rule="evenodd" clip-rule="evenodd" d="M351.405 389.349C352.025 389.076 352.762 389.352 352.993 389.989C353.414 391.149 353.979 392.891 353.979 393.872C353.979 395.436 353.458 398.437 353.458 398.437C351.643 398.437 320.835 398.437 320.835 398.437C320.835 398.437 319.563 394.234 322.303 393.899C325.043 393.564 326.855 393.294 326.855 393.294L342.018 386.535C342.316 386.402 342.664 386.542 342.788 386.843L343.763 389.207C343.763 389.207 346.299 390.39 347.885 390.39C348.85 390.39 350.366 389.806 351.405 389.349Z" fill="#E4E4E4"/>
<path fill-rule="evenodd" clip-rule="evenodd" d="M400.331 337.284C400.331 337.284 426.789 332.974 435.776 331.39C452.852 328.379 457.831 319.192 454.887 299.147H423.425C417.179 300.95 371.234 321.451 371.234 321.451C365.723 324.187 366.75 332.251 367.757 334.908C367.818 335.071 395.628 382.657 395.628 382.657L421.366 366.265L400.282 339.215C400.282 339.215 399.447 337.533 400.331 337.284Z" fill="#555555"/>
<path fill-rule="evenodd" clip-rule="evenodd" d="M379.614 305.122L398.064 291.577L402.142 301.657L383.872 309.232C378.705 315.3 375.816 317.83 375.204 316.821C374.689 315.97 375.092 315.174 375.463 314.44C375.752 313.869 376.022 313.336 375.823 312.845C375.369 311.723 371.898 311.841 368.61 312.094C365.32 312.347 366.279 310.884 367.072 310.161C370.429 308.152 374.61 306.473 379.614 305.122ZM476.369 328.99C474.674 325.552 468.902 292.044 468.902 292.044L456.815 292.092C456.815 292.092 468.01 328.224 468.902 330.434C470.061 333.306 468.092 337.478 466.757 340.308C466.551 340.746 466.359 341.151 466.197 341.515C468.049 342.344 468.94 341.342 469.878 340.286C470.937 339.093 472.058 337.831 474.698 339.058C475.717 339.533 476.682 340.093 477.625 340.642C480.881 342.534 483.873 344.273 487.942 341.762C488.587 341.364 489.295 339.866 487.586 338.695C483.331 335.777 477.198 330.671 476.369 328.99Z" fill="#B28B67"/>
<path fill-rule="evenodd" clip-rule="evenodd" d="M434.553 241.336L429.551 240.478C410.995 256.505 403.372 287.296 380.626 303.607L386.101 310.392C425.562 305.507 435.342 267.95 434.553 241.336Z" fill="#E87613"/>
<path fill-rule="evenodd" clip-rule="evenodd" d="M456.355 304.177C456.355 304.177 426.274 304.177 412.102 304.177C410.079 304.177 410.46 301.258 410.753 299.784C414.126 282.783 427.296 264.456 427.296 240.254L440.061 238.252C450.619 255.23 454.27 276.133 456.355 304.177Z" fill="#DDE3E9"/>
<path fill-rule="evenodd" clip-rule="evenodd" d="M461.331 316.321C463.32 321.097 465.271 325.264 467.108 328.465H476.599C477.62 295.456 465.121 270.056 454.66 254.741C456.982 254.575 459.079 253.604 460.404 251.212C465.07 242.796 463.385 238.161 458.399 236.638C455.657 235.801 453.078 236.373 449.992 237.057C447.466 237.616 444.599 238.252 441.026 238.253C441.024 238.253 441.023 238.253 441.022 238.253C440.676 238.253 440.36 238.276 440.074 238.32L435.839 238.562C435.839 238.562 418.641 296.835 426.353 316.321H461.331Z" fill="#FF9B21"/>
<path fill-rule="evenodd" clip-rule="evenodd" d="M461.331 316.321C458.722 310.054 456.046 302.74 453.471 295.187C452.512 303.505 450.916 311.86 448.258 316.321H461.331Z" fill="black" fill-opacity="0.1"/>
<path fill-rule="evenodd" clip-rule="evenodd" d="M186.206 197.914C189.952 200.171 193.632 201.262 195.359 200.816C199.692 199.7 200.09 183.856 196.738 177.61C193.387 171.364 176.156 168.642 175.287 181.017C174.986 185.313 176.789 189.145 179.455 192.273L174.676 214.543H188.557L186.206 197.914Z" fill="#B28B67"/>
<path fill-rule="evenodd" clip-rule="evenodd" d="M191.255 170.807C189.358 170.229 186.604 170.033 185.446 170.165C186.105 168.587 186.367 166.829 186.154 165.117C185.946 163.453 185.203 162.036 184.515 160.552C184.198 159.867 183.839 159.187 183.303 158.663C182.757 158.13 182.067 157.779 181.343 157.61C180.602 157.439 179.827 157.453 179.085 157.609C178.756 157.678 178.462 157.828 178.139 157.912C177.81 157.997 177.65 157.791 177.41 157.583C176.833 157.084 175.988 156.837 175.258 156.749C174.439 156.649 173.589 156.773 172.808 157.042C172.048 157.304 171.318 157.73 170.769 158.349C170.524 158.625 170.302 158.939 170.158 159.286C170.099 159.428 170.089 159.512 169.946 159.564C169.815 159.613 169.662 159.614 169.526 159.66C168.216 160.104 167.095 161.117 166.485 162.417C166.129 163.175 165.961 164.51 166.006 166.006C166.053 167.503 167.404 171.408 168.668 172.832C169.797 174.104 171.455 174.942 173.056 175.309C171.993 176.524 171.287 178.041 170.763 179.584C170.195 181.26 169.843 183.002 169.714 184.776C169.591 186.461 169.579 188.245 169.974 189.895C170.344 191.438 171.135 192.703 172.456 193.506C173.06 193.874 173.711 194.15 174.365 194.403C175.01 194.652 175.657 194.894 176.333 195.033C177.611 195.298 179.085 195.253 180.07 194.235C180.425 193.868 180.815 193.407 181.074 192.959C181.167 192.798 181.223 192.692 181.11 192.535C180.975 192.346 180.756 192.202 180.581 192.054C179.588 191.213 178.973 190.089 178.819 188.754C178.662 187.4 179.026 185.651 180.343 185.06C181.968 184.331 183.759 185.168 185.205 185.949C185.819 183.782 187.08 181.83 189.057 180.836C191.244 179.737 193.754 179.608 196.002 178.664C196.588 178.418 197.184 178.139 197.616 177.638C197.796 177.429 198.007 177.157 198.08 176.88C198.174 176.516 197.939 176.211 197.758 175.928C196.797 174.424 193.152 171.386 191.255 170.807Z" fill="#191847"/>
<path fill-rule="evenodd" clip-rule="evenodd" d="M170.627 260.806L191.814 333.801L201.78 388.606H211.782L201.798 260.806H170.627Z" fill="#997659"/>
<path fill-rule="evenodd" clip-rule="evenodd" d="M161.106 260.806C162.584 298.726 162.001 319.409 161.67 322.854C161.339 326.3 159.461 349.373 146.661 389.763H157.064C174.015 351.016 179.933 327.942 181.877 322.854C183.822 317.766 189.563 297.084 197.947 260.806H161.106Z" fill="#B28B67"/>
<path fill-rule="evenodd" clip-rule="evenodd" d="M170.173 260.806C175.684 285.923 185.216 326.017 198.768 381.088H213.397C214.478 324.564 209.881 287.36 201.921 260.806H170.173Z" fill="#E87613"/>
<path fill-rule="evenodd" clip-rule="evenodd" d="M161.032 260.806C162.479 298.726 158.727 336.085 147.104 381.679H162.713C179.696 343.51 191.868 306.336 200.187 260.806H161.032Z" fill="#FF9B21"/>
<path fill-rule="evenodd" clip-rule="evenodd" d="M145.178 397.28L145.707 388.75C145.73 388.38 146.09 388.127 146.453 388.203C151.466 389.269 158.38 386.871 158.38 386.871C165.339 391.799 175.371 394.061 178.903 394.738C179.587 394.869 180.025 395.559 179.835 396.228L179.045 399.015H158.38H146.326L145.178 397.28Z" fill="#191847"/>
<path fill-rule="evenodd" clip-rule="evenodd" d="M199.547 397.28L200.076 388.75C200.099 388.38 200.459 388.127 200.822 388.203C205.835 389.269 212.75 386.871 212.75 386.871C219.708 391.799 229.74 394.061 233.272 394.738C233.956 394.869 234.394 395.559 234.205 396.228L233.414 399.015H212.75H200.695L199.547 397.28Z" fill="#191847"/>
<path fill-rule="evenodd" clip-rule="evenodd" d="M219.992 215.52L199.916 226.513L207.33 234.469L221.918 221.115C229.602 218.998 233.117 217.449 232.461 216.468C231.907 215.642 231.015 215.67 230.193 215.697C229.553 215.717 228.956 215.737 228.594 215.349C227.769 214.464 229.343 211.368 230.963 208.495C232.582 205.622 230.85 205.872 229.86 206.285C226.62 208.478 223.331 211.556 219.992 215.52ZM240.178 230.945L231.359 235.789L231.861 244.637C231.861 244.637 237.573 240.515 242.486 239.145C248.752 237.399 251.286 236.066 254.348 232.165C255.986 230.078 257.376 225.883 255.817 224.517C255.219 223.993 252.99 225.231 250.717 226.494C248.984 227.457 247.224 228.435 246.14 228.658C244.682 228.958 244.852 227.067 244.989 225.556C245.087 224.472 245.167 223.583 244.615 223.84C242.033 223.885 240.178 230.945 240.178 230.945Z" fill="#997659"/>
<path fill-rule="evenodd" clip-rule="evenodd" d="M190.139 224.064C197.171 223.99 206.548 222.505 216.553 216.156L220.483 224.917C213.581 231.764 203.877 237.391 195.392 237.153C188.705 236.965 185.288 228.878 190.139 224.064Z" fill="#E6E6E6"/>
<path fill-rule="evenodd" clip-rule="evenodd" d="M171.174 284.087C164.489 283.215 158.345 282.414 154.706 283.131C150.621 269.869 154.013 261.519 157.144 253.811C159.03 249.165 160.823 244.753 160.827 239.639C160.838 224.745 172.798 201.821 174.559 201.821H175.063H189.01H190.607C191.325 211.037 194.387 221.016 197.469 231.059C198.189 233.404 198.91 235.753 199.602 238.096C211.265 240.743 237.164 231.529 237.164 231.529C237.164 231.529 243.702 245.053 243.208 250.811C228.134 258.684 215.214 262.194 204.569 262.426C204.908 268.74 204.139 274.749 201.556 280.239C198.096 287.596 183.685 285.718 171.174 284.087Z" fill="white"/>
</svg>
